<svg width="32" height="32" viewBox="0 0 32 32" fill="none" xmlns="http://www.w3.org/2000/svg">
<circle cx="15.5645" cy="15.5628" r="12.9659" stroke="white" stroke-width="1.72879"/>
<line x1="6.69316" y1="5.90417" x2="24.4133" y2="25.3531" stroke="white" stroke-width="1.72879"/>
<path d="M23.934 15.1407H21.3054V13.147C21.3054 13.0279 21.3017 12.9111 21.2942 12.7967C22.5173 11.6435 22.6282 10.1234 22.629 8.5363C22.629 8.18017 22.3543 7.8745 21.9982 7.85754C21.9089 7.85335 21.8197 7.8673 21.7359 7.89854C21.6521 7.92979 21.5756 7.97769 21.5108 8.03934C21.4461 8.101 21.3945 8.17514 21.3592 8.25728C21.3239 8.33942 21.3056 8.42786 21.3054 8.51727C21.3054 9.67543 21.2285 10.5089 20.8959 11.1579C20.1009 9.45579 18.1751 8.51438 15.3492 8.51438C13.7029 8.51438 12.2805 8.89202 11.2365 9.60594C10.6202 10.0274 10.1528 10.5536 9.84255 11.1661C9.47566 10.5296 9.39294 9.71679 9.39294 8.5363C9.39294 8.18017 9.11995 7.8745 8.76423 7.8563C8.67464 7.85181 8.58508 7.86558 8.50099 7.89678C8.41689 7.92797 8.34001 7.97593 8.27502 8.03775C8.21003 8.09957 8.15828 8.17395 8.12292 8.25638C8.08757 8.33882 8.06933 8.42758 8.06933 8.51727C8.06933 10.0738 8.17729 11.5669 9.41114 12.721C9.39928 12.8605 9.39321 13.0025 9.39294 13.147V15.1407H6.76434C6.40821 15.1407 6.10254 15.4145 6.08475 15.7706C6.08044 15.8602 6.09436 15.9497 6.12568 16.0337C6.15701 16.1177 6.20507 16.1945 6.26696 16.2593C6.32885 16.3242 6.40327 16.3758 6.48571 16.411C6.56816 16.4463 6.6569 16.4644 6.74655 16.4643H9.39377V17.1207C9.39313 17.8817 9.53904 18.6357 9.82352 19.3415C8.76174 20.2907 8.07678 21.3397 8.06933 23.0496C8.06933 23.4111 8.34315 23.7238 8.70466 23.7383C8.79374 23.7419 8.88262 23.7274 8.96597 23.6958C9.04931 23.6642 9.12541 23.616 9.18969 23.5542C9.25397 23.4925 9.30511 23.4184 9.34003 23.3363C9.37496 23.2543 9.39295 23.1661 9.39294 23.0769C9.39294 21.9328 9.76934 21.2276 10.4754 20.5406C11.2896 21.6995 12.4892 22.5314 13.8601 22.8875C13.9579 22.9127 14.0602 22.9153 14.1591 22.8949C14.258 22.8745 14.3509 22.8318 14.4308 22.7699C14.5106 22.7081 14.5753 22.6288 14.6198 22.5381C14.6642 22.4474 14.6873 22.3478 14.6874 22.2468V11.8449C14.6874 11.4888 14.9612 11.1831 15.3173 11.1653C15.4068 11.161 15.4962 11.1749 15.5802 11.2062C15.6641 11.2374 15.7409 11.2854 15.8057 11.3472C15.8706 11.409 15.9222 11.4834 15.9575 11.5657C15.9928 11.648 16.011 11.7367 16.011 11.8263V22.2468C16.011 22.3478 16.0341 22.4474 16.0786 22.5381C16.123 22.6288 16.1877 22.7081 16.2675 22.7699C16.3474 22.8318 16.4403 22.8745 16.5392 22.8949C16.6382 22.9153 16.7404 22.9127 16.8382 22.8875C18.2089 22.5312 19.4083 21.6994 20.2225 20.5406C20.9257 21.2247 21.3017 21.9271 21.305 23.0616C21.3035 23.2328 21.3672 23.398 21.4833 23.5238C21.5993 23.6496 21.7589 23.7264 21.9296 23.7387C22.0196 23.7439 22.1097 23.7305 22.1944 23.6996C22.2791 23.6686 22.3565 23.6207 22.422 23.5587C22.4875 23.4968 22.5397 23.4221 22.5753 23.3392C22.6109 23.2564 22.6291 23.1671 22.629 23.0769C22.629 21.3529 21.9424 20.2961 20.8756 19.3415C21.1601 18.6357 21.306 17.8817 21.3054 17.1207V16.4643H23.9526C24.0423 16.4644 24.131 16.4463 24.2134 16.411C24.2959 16.3758 24.3703 16.3242 24.4322 16.2593C24.4941 16.1945 24.5422 16.1177 24.5735 16.0337C24.6048 15.9497 24.6187 15.8602 24.6144 15.7706C24.597 15.4145 24.2901 15.1407 23.934 15.1407Z" fill="white"/>
<path d="M18.0552 8.18905L18.0684 8.19277C18.6297 8.34995 19.1054 7.7564 18.8212 7.24764C18.4778 6.63062 17.9758 6.11651 17.3672 5.75846C16.7585 5.4004 16.0653 5.21138 15.3592 5.21094H15.3418C14.6285 5.21142 13.9286 5.40428 13.3157 5.7692C12.7029 6.13412 12.1998 6.65759 11.8595 7.28445C11.5765 7.80479 12.0721 8.40124 12.6387 8.23C13.454 7.98182 14.3673 7.85525 15.3505 7.85525C16.3469 7.85525 17.2569 7.96776 18.0552 8.18905Z" fill="white"/>
</svg>
