<svg viewBox="0 0 81 68" xmlns="http://www.w3.org/2000/svg" xmlns:xlink="http://www.w3.org/1999/xlink" width="81.000000" height="68.000000" fill="none">
	<rect id="логотип-Zeryva. 3" width="81.000000" height="68.000000" x="0.000000" y="0.000000" fill="rgb(255,255,255)" fill-opacity="0" />
	<g id="Group">
		<path id="Vector" d="M15.9434 26.9442C13.9322 26.7674 12.4295 26.4279 11.4811 25.9395L11.2612 25.8279L11.5498 25.5721C11.7102 25.4279 12.0217 25.1861 12.2416 25.0279C13.3458 24.2279 14.0513 23.4279 15.4486 21.4C16.1679 20.3581 16.3695 20.0837 16.7864 19.6093C17.5699 18.7023 18.5824 18.0279 19.6544 17.7023C20.5936 17.414 21.18 17.414 22.3575 17.7116C23.1363 17.9116 23.764 18.0093 23.8052 17.9395C23.8419 17.8791 24.0068 17.1628 24.0068 17.0651C24.0068 16.9302 23.5945 16.8512 21.2808 16.5256C20.1904 16.3767 19.3062 16.1907 18.5091 15.9395C17.2079 15.5395 17.2033 15.5395 15.3753 15.6465C14.1704 15.7209 13.8589 15.7256 13.1396 15.6791C11.9209 15.5954 11.1421 15.4651 10.1708 15.1767C7.509 14.3953 5.24118 12.6419 3.47274 9.99535C2.49689 8.53954 1.9746 7.47907 1.2599 5.50698C0.531448 3.50698 0 1.30698 0 0.288372L0 0L0.655147 0.423256C2.30905 1.49767 3.21618 1.83721 5.47941 2.22326C6.5698 2.4093 7.53648 2.52093 9.32325 2.66977C11.7927 2.87442 13.0159 3.06047 14.2162 3.41861C16.4703 4.08837 18.4174 5.4 19.5124 6.97674L19.7277 7.28372L19.8239 6.76744C20.0942 5.35814 20.6623 4.1814 21.4412 3.41395L21.771 3.09302L21.881 3.22791C21.936 3.29767 22.0184 3.44651 22.0597 3.54884C22.2796 4.07907 22.5178 4.51628 22.7561 4.8186C22.9027 5 23.2371 5.41861 23.4983 5.74884C24.5566 7.06512 25.2346 8.37209 25.427 9.46512C25.5141 9.94884 25.4683 10.7349 25.3354 11.0884C25.198 11.4512 24.8956 11.9163 24.6299 12.1814C24.4191 12.386 24.4191 12.386 24.2496 12.3256C23.9564 12.2186 23.567 11.9581 23.2921 11.6791C22.6186 11 22.0872 9.85116 21.7206 8.27442C21.5145 7.4093 21.3908 7.01861 21.2808 6.91163C21.1892 6.82791 21.1892 6.82791 21.1617 7.02791C21.1434 7.13954 21.1067 7.57675 21.0747 8C20.983 9.22326 21.0701 9.81861 21.5053 10.9953C21.6794 11.4791 21.8993 12.214 21.8993 12.3302C21.8993 12.4372 21.3862 12.2279 21.0838 11.9953C20.951 11.893 20.8318 11.8093 20.8227 11.8093C20.8089 11.8093 20.7998 11.907 20.7998 12.0326C20.7998 12.4 20.8364 12.386 19.7231 12.4047C18.2891 12.4326 17.1529 12.293 15.6227 11.9023C12.9105 11.2093 9.90967 9.79535 7.64186 8.13488C7.18371 7.8 6.77138 7.43256 5.95588 6.62326C4.62268 5.29768 4.16912 4.86512 4.13705 4.89302C4.11872 4.91628 4.2974 5.23721 5.22743 6.83721C5.91007 8.00465 6.62478 8.82791 7.81137 9.81861C10.8901 12.3767 15.6686 14.2558 21.0289 15.014C27.4933 15.9302 32.936 15.3302 38.388 13.1023C42.2089 11.5395 46.0481 9.03721 48.9986 6.1814C49.7958 5.4093 50.4509 4.82326 50.4784 4.85581C50.4921 4.86512 50.3776 5.05581 50.231 5.27907C48.7924 7.47907 44.6875 10.9674 40.6375 13.4419C36.7112 15.8372 32.5695 16.8744 26.183 17.0558L25.088 17.0884L25.033 17.2047C25.001 17.2698 24.7902 17.707 24.5657 18.1814C23.402 20.6093 21.9772 22.0419 19.4712 23.3163C18.1563 23.9814 17.8585 24.0884 15.6227 24.693C15.2333 24.8 14.8943 24.9023 14.8714 24.9256C14.8485 24.9488 14.9813 25.014 15.1692 25.0744C15.4761 25.1721 15.5907 25.1814 16.3787 25.1767C17.1529 25.1767 17.3179 25.1628 17.8447 25.0465C19.5994 24.6651 21.8077 23.6744 23.0768 22.6977C23.2738 22.5442 23.6907 22.1767 24.0068 21.8744C24.3229 21.5721 24.7123 21.214 24.8773 21.0791C25.2346 20.7767 25.2575 20.814 25.1063 21.3721C24.6299 23.0884 23.2279 24.8233 21.4503 25.8884C20.6119 26.3907 19.6636 26.707 18.5595 26.8605C18.0509 26.9256 16.3787 26.9814 15.9434 26.9442Z" fill="rgb(131,189,22)" fill-rule="nonzero" transform="matrix(1,0,0,-1,15.073,26.9717)" />
		<path id="Vector" d="M0.229072 15.4419L0.229072 13.6744L4.32947 13.6744C6.58354 13.6744 8.42986 13.6651 8.42986 13.6512C8.42986 13.6419 6.53314 11.3721 4.21493 8.61861L0 3.60465L0 1.80465L0 0L7.03252 0L14.065 0L14.065 1.7907L14.065 3.5814L9.64395 3.5814C7.2112 3.5814 5.22285 3.59535 5.22743 3.6186C5.22743 3.63721 7.17455 5.95349 9.55232 8.76744L13.8772 13.8837L13.8818 15.5488L13.8818 17.2093L7.05543 17.2093L0.229072 17.2093L0.229072 15.4419Z" fill="rgb(67,147,41)" fill-rule="nonzero" transform="matrix(1,0,0,-1,0.0456543,45.7207)" />
		<path id="Vector" d="M5.81115 12.7798C3.73117 12.5193 2.06811 11.5333 1.00979 9.9333C0.542486 9.22167 0.295088 8.62632 0.107248 7.75655C0.00645632 7.29144 -0.0347767 5.9333 0.033945 5.42167C0.166807 4.49144 0.528741 3.51004 1.02812 2.74725C2.25595 0.86818 4.79865 -0.182983 7.61166 0.0263193C8.77535 0.114691 9.5542 0.31004 10.3697 0.719343C11.1806 1.12865 11.8816 1.68213 12.3306 2.26353L12.5505 2.54725L12.3993 2.64027C12.3168 2.69144 11.68 3.08678 10.9882 3.51934L9.72829 4.30539L9.4305 4.01237C8.8624 3.46353 8.28971 3.17516 7.50629 3.05423C6.59 2.91004 5.48129 3.21702 4.76658 3.80772C4.37258 4.1333 3.93276 4.88679 3.93276 5.23097C3.93276 5.28213 4.74826 5.29144 8.4913 5.29144L13.0498 5.29144L13.0498 5.77051C13.0498 6.97981 12.8895 8.17981 12.6375 8.88214C12.326 9.7426 11.7487 10.6635 11.176 11.2031C10.3514 11.9891 9.33429 12.4914 8.10188 12.7147C7.63457 12.8031 6.2922 12.8356 5.81115 12.7798ZM7.52003 10.0077C8.54169 9.77516 9.05482 9.17516 9.22433 8.00307L9.2564 7.80307L6.59458 7.80307C3.5525 7.80307 3.85945 7.74725 4.01981 8.25888C4.12518 8.60772 4.46421 9.1333 4.74826 9.38911C5.07354 9.67748 5.68745 9.96121 6.17767 10.0496C6.4663 10.1007 7.21307 10.0775 7.52003 10.0077Z" fill="rgb(67,147,41)" fill-rule="nonzero" transform="matrix(1,0,0,-1,15.7214,46.0811)" />
		<path id="Vector" d="M5.16702 12.6817C3.49937 12.491 1.90045 11.8259 0.80548 10.8585L0.608478 10.6817L1.63472 9.63988C2.20282 9.06313 2.67929 8.59336 2.69762 8.59336C2.71594 8.59336 2.88088 8.70499 3.06872 8.83988C4.1591 9.63522 5.42816 9.96546 6.51396 9.7329C7.444 9.5329 7.97545 8.99801 8.035 8.21197L8.06249 7.86313L7.18744 7.83057C6.71097 7.81662 5.98252 7.77011 5.57019 7.7329C2.52352 7.46313 0.52143 6.3422 0.104518 4.67243C-0.0558324 4.04453 -0.0283438 3.23057 0.164077 2.59336C0.315265 2.10964 0.562663 1.72825 1.03913 1.24452C1.39649 0.881734 1.54767 0.765455 1.86379 0.607315C3.58184 -0.25315 5.83591 -0.192685 7.27907 0.74685C7.54937 0.918943 7.98919 1.35615 8.03042 1.48639C8.04417 1.5329 8.0854 1.57011 8.12205 1.57011C8.17245 1.57011 8.18619 1.45383 8.18619 0.918943L8.18619 0.26778L10.0646 0.26778L11.943 0.26778L11.943 3.65383C11.943 7.11894 11.9201 7.74685 11.7551 8.68174C11.4803 10.2724 10.6556 11.5003 9.44609 12.1143C9.07041 12.3096 8.36029 12.5329 7.85633 12.6166C7.34321 12.705 5.71221 12.7469 5.16702 12.6817ZM8.18619 5.1422C8.18619 4.39336 7.97086 3.82127 7.52188 3.35615C7.09123 2.90964 6.60559 2.70499 5.87256 2.65848C4.62641 2.57476 3.788 3.07708 3.788 3.90034C3.788 4.24453 3.9117 4.52359 4.16368 4.75615C4.46606 5.03057 4.73178 5.16546 5.21283 5.29104C5.82217 5.45383 6.40401 5.51429 7.32946 5.51894L8.18619 5.5236L8.18619 5.1422Z" fill="rgb(67,147,41)" fill-rule="nonzero" transform="matrix(1,0,0,-1,69.0107,45.9883)" />
		<path id="Vector" d="M6.67975 18.1302C6.27658 18.0558 5.82302 17.893 5.51148 17.707C5.20453 17.5302 4.45317 16.7535 4.23326 16.3953L4.05458 16.093L4.04084 16.986L4.03167 17.8791L2.01584 17.8791L0 17.8791L0 11.8326L0 5.78605L2.08456 5.78605L4.16912 5.78605L4.16912 9.05581C4.16912 11.8233 4.17828 12.3674 4.23784 12.6C4.50356 13.6605 5.29157 14.4279 6.33156 14.6419C6.7668 14.7349 7.59146 14.7395 7.91674 14.6512C8.08168 14.6093 8.15498 14.6047 8.15498 14.6419C8.15956 14.8837 8.33824 17.8 8.3474 17.8093C8.37031 17.8326 13.5611 6.04186 13.5611 5.96744C13.5611 5.86047 13.1259 4.7907 12.9609 4.48837C12.7364 4.07907 12.4615 3.74419 12.2554 3.6186C11.8293 3.36744 10.9588 3.29767 10.1708 3.45581C9.93258 3.50698 9.73558 3.53954 9.731 3.53488C9.72642 3.53488 9.63937 2.85116 9.53399 2.0186C9.42862 1.18605 9.33241 0.44186 9.31867 0.362791L9.29118 0.218605L9.83637 0.106977C10.3037 0.0139535 10.5144 0 11.4078 0C12.8876 0 13.5153 0.111628 14.3628 0.544186C15.0638 0.897675 15.4349 1.2186 15.9572 1.91628C16.2962 2.36744 16.6261 2.95814 16.8964 3.60465C17.0201 3.89767 18.3533 7.20465 19.8606 10.9581C21.3725 14.7163 22.6186 17.7721 22.6369 17.7488C22.6507 17.7302 23.764 15.0326 25.1109 11.7488L27.5574 5.78605L29.7748 5.79535L31.9923 5.8093L34.4113 11.7628C35.7445 15.0372 36.8486 17.7535 36.8623 17.8C36.8852 17.8744 36.7707 17.8791 34.6999 17.8698L32.5145 17.8558L31.1997 13.9581C30.4758 11.8186 29.871 10.0512 29.8573 10.0372C29.8206 9.99535 29.9123 9.72558 28.5012 13.907C27.8231 15.9256 27.2413 17.6465 27.2092 17.7302L27.1588 17.8791L22.7331 17.8698L18.3075 17.8558L17.0613 14.0047C16.3787 11.8884 15.806 10.1395 15.7877 10.1256C15.7739 10.107 15.7419 10.1163 15.719 10.1395C15.696 10.1628 15.0546 11.9116 14.2895 14.0326L12.9059 17.8791L10.6244 17.8791L8.34282 17.8791L8.32907 18.0047C8.31991 18.107 8.28326 18.1395 8.17789 18.1628C7.93049 18.2186 7.04169 18.2 6.67975 18.1302Z" fill="rgb(67,147,41)" fill-rule="nonzero" transform="matrix(1,0,0,-1,31.2908,51.5068)" />
		<path id="Vector" d="M6.7819 4.43274C4.97681 4.37693 5.09593 4.41414 3.31374 3.36297C1.86601 2.51181 0.757295 1.76297 0.335802 1.34902C-0.0215507 1.00018 -0.0811096 0.879252 0.0975669 0.842043C0.152544 0.82809 0.716062 0.660648 1.34372 0.465299C2.9793 -0.0370268 2.9793 -0.0370267 3.24502 0.0327407C3.55198 0.116462 3.88642 0.330415 4.59655 0.902508C4.9539 1.19088 6.11301 1.99553 7.44163 2.8746C9.92935 4.51646 9.72777 4.38158 9.70028 4.40483C9.65447 4.44669 7.90894 4.4653 6.7819 4.43274Z" fill="rgb(244,166,0)" fill-rule="nonzero" transform="matrix(1,0,0,-1,44.9966,56.7119)" />
		<path id="Vector" d="M5.99635 6.63744C5.61151 6.58628 5.50613 6.52117 4.15461 5.42349C1.81349 3.52582 -0.0969783 1.6793 0.00381355 1.40954C0.0450466 1.30721 0.599402 0.907212 1.06671 0.646746C1.82723 0.218839 2.6748 -0.0555794 3.02299 0.00953691C3.18792 0.0420951 3.7606 0.549072 5.62525 2.31651C6.6011 3.23744 7.34788 3.89326 8.07633 4.4607C8.60319 4.87 9.89974 5.75838 10.4495 6.08861C10.5915 6.17233 10.7107 6.25605 10.7107 6.27C10.7107 6.32582 10.4083 6.44675 10.1609 6.49326C10.0234 6.52117 9.18962 6.56768 8.3054 6.59558C7.42576 6.61884 6.61026 6.6514 6.49573 6.6607C6.38119 6.67 6.1567 6.6607 5.99635 6.63744Z" fill="rgb(244,166,0)" fill-rule="nonzero" transform="matrix(1,0,0,-1,50.4971,58.9209)" />
		<path id="Vector" d="M7.00962 10.1395C6.47817 10.0233 5.31906 8.96279 3.63767 7.04651C1.98377 5.15349 0 2.55814 0 2.27907C0 2.15349 0.476471 1.6093 0.957523 1.1814C1.49355 0.711628 2.419 0 2.49689 0C2.5931 0 3.51855 0.590698 4.09581 1.01395C7.27992 3.37209 10.8809 7.14884 11.8156 9.11628C11.9759 9.44651 12.1317 9.97674 12.0859 10.0233C11.9988 10.1116 7.38071 10.2186 7.00962 10.1395Z" fill="rgb(244,166,0)" fill-rule="nonzero" transform="matrix(1,0,0,-1,55.6174,62.6055)" />
		<path id="Vector" d="M1.87497 6.14884C0.853309 6.11163 0.0103227 6.07442 0.00115981 6.06512C-0.0263289 6.04186 0.440979 5.17674 0.747936 4.68837C1.73295 3.09302 3.09822 1.38605 3.99618 0.613954C4.35812 0.302326 4.78419 0 4.86208 0C4.8804 0 4.89873 1.40465 4.89873 3.11628L4.89873 6.23256L4.31688 6.22326C3.9916 6.22326 2.89663 6.18605 1.87497 6.14884Z" fill="rgb(244,166,0)" fill-rule="nonzero" transform="matrix(1,0,0,-1,14.2512,58.79)" />
		<path id="Vector" d="M0.0320701 11.5635C0.0641403 11.2472 0.224491 10.2891 0.485633 8.80536C0.687217 7.68443 0.769683 7.01466 0.833824 5.96815C0.888801 5.09373 0.98043 4.46582 1.08122 4.22396C1.11787 4.13559 1.2095 3.9728 1.28739 3.86582C1.53479 3.51698 3.9996 1.71233 5.36946 0.875123C5.92381 0.535588 6.88133 0.061169 7.10124 0.0146574C7.24327 -0.0132496 7.24785 -0.00859845 7.22953 0.0937272C7.21578 0.149541 7.12873 0.558843 7.0371 0.991402C6.44152 3.87047 5.02585 8.80536 4.1737 10.9914C3.94921 11.5728 3.87132 11.717 3.79344 11.7309C3.69265 11.7542 0.723869 11.8519 0.270305 11.8519L0 11.8519L0.0320701 11.5635Z" fill="rgb(244,166,0)" fill-rule="nonzero" transform="matrix(1,0,0,-1,19.7363,64.4561)" />
		<path id="Vector" d="M9.02257 2.36744C7.14417 2.2093 4.35865 1.84186 2.72308 1.53488C1.24785 1.25581 -0.103677 0.874419 0.00627746 0.762791C0.0612548 0.706977 1.29366 0.465116 2.19621 0.330233C3.72641 0.102326 4.65645 0.00930233 5.43529 0.00465116L6.2004 0L7.33659 0.581395C8.23456 1.04186 10.3649 2.1814 10.7406 2.4C10.8414 2.45581 9.8793 2.44186 9.02257 2.36744Z" fill="rgb(244,166,0)" fill-rule="nonzero" transform="matrix(1,0,0,-1,36.585,55.0459)" />
		<path id="Vector" d="M0.311539 14.5256C0.137443 14.5163 0 14.4977 0 14.4884C0 14.4744 0.0687217 14.3674 0.155769 14.2465C1.22783 12.7209 3.54604 8.03256 4.90215 4.65116C5.76346 2.50233 6.09333 1.83256 6.49191 1.4186C6.65685 1.25116 6.77596 1.18605 7.22494 1.02326C8.77347 0.465116 10.7893 0 11.6552 0C11.953 0 11.9622 0.00465116 11.9301 0.106977C11.6002 1.2093 9.37823 5.12558 6.41861 9.82791C4.84717 12.3256 4.01335 13.5535 3.66058 13.893C3.47274 14.0698 3.01459 14.2977 2.63433 14.3954C2.08914 14.5349 1.31946 14.5767 0.311539 14.5256Z" fill="rgb(244,166,0)" fill-rule="nonzero" transform="matrix(1,0,0,-1,24.2817,67.3945)" />
		<path id="Vector" d="M0.114536 14.4231C0.178677 14.3487 0.471889 14.0184 0.765102 13.6789C1.41567 12.9347 1.80967 12.5022 2.83134 11.4091C5.25492 8.81844 6.80803 6.79519 9.29576 2.99053C10.7068 0.832395 10.9726 0.502162 11.4857 0.246348C11.669 0.157976 11.9393 0.0603018 12.0904 0.0323948C12.4157 -0.0327215 13.4374 0.00448782 14.2437 0.106813C14.5461 0.144023 15.2287 0.218441 15.7556 0.269604C17.185 0.41379 17.7485 0.520767 18.1654 0.73472C18.3945 0.855651 18.3854 0.874255 17.8493 1.41844C15.6182 3.71146 6.07958 11.7626 3.58727 13.4557C2.51522 14.1859 1.44316 14.5487 0.343609 14.5487L0 14.5487L0.114536 14.4231Z" fill="rgb(244,166,0)" fill-rule="nonzero" transform="matrix(1,0,0,-1,28.9814,67.9443)" />
		<path id="Vector" d="M0 11.9349C0 11.9256 0.137443 11.814 0.311538 11.6837C0.682636 11.4047 1.3332 11.0186 2.0754 10.6419C3.77053 9.7814 6.65226 8.00465 9.96465 5.77674C12.6906 3.94884 14.0605 2.92093 15.8976 1.32558C17.3087 0.102326 17.4645 0 17.8951 0C18.2021 0 18.4541 0.0790698 19.5399 0.52093C21.038 1.13023 21.8398 1.55349 22.3758 2.0186C22.4949 2.12093 22.5041 2.14884 22.4628 2.24651C22.3575 2.47442 22.0917 2.72558 21.29 3.33023C18.6694 5.32093 15.6411 7.03256 12.2187 8.45116C8.99796 9.7814 4.59519 11.1721 2.02042 11.6744C1.03999 11.8651 0 12 0 11.9349Z" fill="rgb(244,166,0)" fill-rule="nonzero" transform="matrix(1,0,0,-1,33.4902,66.0469)" />
	</g>
</svg>
