<svg aria-hidden="true" style="position: absolute; width: 0; height: 0; overflow: hidden;" version="1.1" xmlns="http://www.w3.org/2000/svg" xmlns:xlink="http://www.w3.org/1999/xlink">
  <defs>

<symbol id="icon-hero-arrow-left" viewBox="0 0 17 32">
<path d="M16.354 2.698c0.144-0.153 0.257-0.332 0.332-0.528s0.11-0.405 0.104-0.615c-0.006-0.21-0.053-0.417-0.139-0.608s-0.209-0.365-0.361-0.509-0.332-0.257-0.529-0.332c-0.196-0.075-0.405-0.11-0.615-0.104s-0.417 0.053-0.608 0.139c-0.192 0.086-0.365 0.209-0.509 0.361l-13.592 14.391c-0.281 0.297-0.437 0.69-0.437 1.099s0.156 0.802 0.437 1.099l13.592 14.393c0.143 0.156 0.316 0.282 0.509 0.371s0.4 0.138 0.612 0.146c0.212 0.007 0.423-0.027 0.621-0.102s0.38-0.188 0.534-0.334 0.278-0.32 0.364-0.514c0.086-0.194 0.133-0.402 0.137-0.614s-0.033-0.422-0.11-0.62-0.193-0.377-0.341-0.529l-12.556-13.296 12.556-13.293z"></path>
</symbol>

<symbol id="icon-instagram" viewBox="0 0 32 32">
<path d="M8.889-0c-4.909 0-8.889 3.98-8.889 8.889v14.222c0 4.909 3.98 8.889 8.889 8.889h14.222c4.909 0 8.889-3.98 8.889-8.889v-14.222c0-4.909-3.98-8.889-8.889-8.889h-14.222zM26.667 3.556c0.981 0 1.778 0.796 1.778 1.778s-0.796 1.778-1.778 1.778c-0.981 0-1.778-0.796-1.778-1.778s0.796-1.778 1.778-1.778zM16 7.111c4.909 0 8.889 3.98 8.889 8.889s-3.98 8.889-8.889 8.889c-4.909 0-8.889-3.98-8.889-8.889s3.98-8.889 8.889-8.889zM16 10.667c-1.415 0-2.771 0.562-3.771 1.562s-1.562 2.357-1.562 3.771c0 1.414 0.562 2.771 1.562 3.771s2.357 1.562 3.771 1.562c1.414 0 2.771-0.562 3.771-1.562s1.562-2.357 1.562-3.771c0-1.415-0.562-2.771-1.562-3.771s-2.357-1.562-3.771-1.562z"></path>
</symbol>

<symbol id="icon-tiktok" viewBox="0 0 32 32">
<path fill="#f9f9f9" style="fill: var(--color1, #f9f9f9)" d="M8 0h16c4.418 0 8 3.582 8 8v16c0 4.418-3.582 8-8 8h-16c-4.418 0-8-3.582-8-8v-16c0-4.418 3.582-8 8-8z"></path>
<path fill="#f4a600" style="fill: var(--color2, #f4a600)" d="M27.143 10.333c-0.006-0.176-0.077-0.343-0.199-0.47s-0.286-0.205-0.461-0.218c-1.169-0.107-2.285-0.54-3.22-1.251-0.694-0.526-1.275-1.187-1.707-1.943s-0.708-1.592-0.809-2.457c-0.014-0.175-0.092-0.34-0.219-0.461s-0.294-0.193-0.47-0.2h-2.811c-0.092-0-0.182 0.018-0.267 0.054s-0.161 0.087-0.225 0.153c-0.064 0.065-0.115 0.143-0.148 0.228s-0.050 0.176-0.049 0.268v16.787c-0.005 0.507-0.113 1.007-0.317 1.47s-0.502 0.88-0.873 1.225c-0.371 0.345-0.809 0.61-1.286 0.78s-0.984 0.241-1.489 0.208c-0.577-0.032-1.139-0.197-1.642-0.483s-0.933-0.683-1.257-1.162c-0.324-0.479-0.533-1.026-0.61-1.599s-0.022-1.156 0.163-1.704c0.281-0.811 0.83-1.501 1.556-1.959s1.586-0.655 2.439-0.559c0.094 0.010 0.19-0 0.28-0.030s0.173-0.078 0.243-0.141 0.126-0.141 0.164-0.228c0.038-0.087 0.058-0.18 0.057-0.275v-3.289c0 0-1.195-0.084-1.603-0.084-1.045-0.005-2.079 0.224-3.025 0.669s-1.781 1.096-2.443 1.905c-0.881 0.949-1.509 2.105-1.827 3.36-0.367 1.481-0.292 3.036 0.215 4.475s1.424 2.697 2.638 3.621c1.389 1.071 3.094 1.65 4.848 1.645 0.401 0 0.799-0.028 1.195-0.084 1.67-0.248 3.217-1.022 4.417-2.209 0.733-0.719 1.317-1.576 1.717-2.522s0.61-1.961 0.616-2.988v-9.249c1.623 1.253 3.579 2.001 5.624 2.151 0.095 0.006 0.19-0.008 0.28-0.041s0.171-0.084 0.24-0.15 0.123-0.146 0.159-0.234c0.036-0.088 0.054-0.183 0.052-0.278v-2.727l0.055-0.001z"></path>
</symbol>

<symbol id="icon-tiktokk" viewBox="0 0 32 32">
  <path
    d="
      M8 0h16c4.418 0 8 3.582 8 8v16c0 4.418-3.582 8-8 8h-16
      c-4.418 0-8-3.582-8-8v-16c0-4.418 3.582-8 8-8z

      M20.747 3.994h-3.557v16.787
      c0 1.29-1.047 2.337-2.337 2.337
      s-2.337-1.047-2.337-2.337
      1.047-2.337 2.337-2.337
      c0.146 0 0.291 0.014 0.433 0.041
      v-3.357a5.72 5.72 0 0 0-0.433-0.017
      c-3.222 0-5.833 2.611-5.833 5.833
      s2.611 5.833 5.833 5.833
      c3.222 0 5.833-2.611 5.833-5.833
      v-8.651
      c1.154 0.828 2.552 1.32 4.067 1.32
      v-3.46
      c-2.252 0-4.003-1.826-4.003-4.159z
    "
  />
</symbol>



<symbol id="icon-tiktok-mob" viewBox="0 0 32 32">
<path fill="#eff3e5" style="fill: var(--color1, #eff3e5)" d="M8 0h16c4.418 0 8 3.582 8 8v16c0 4.418-3.582 8-8 8h-16c-4.418 0-8-3.582-8-8v-16c0-4.418 3.582-8 8-8z"></path>
<path fill="#1a4b38" style="fill: var(--color2, #1a4b38)" d="M27.143 10.331c-0.006-0.176-0.077-0.343-0.199-0.47s-0.286-0.205-0.461-0.218c-1.169-0.107-2.285-0.54-3.22-1.251-0.694-0.526-1.275-1.187-1.707-1.943s-0.708-1.592-0.809-2.457c-0.014-0.175-0.092-0.34-0.219-0.461s-0.294-0.193-0.47-0.2h-2.811c-0.092-0-0.182 0.018-0.267 0.054s-0.161 0.087-0.225 0.153c-0.064 0.065-0.115 0.143-0.148 0.228s-0.050 0.176-0.049 0.268v16.787c-0.005 0.506-0.113 1.007-0.317 1.47s-0.502 0.88-0.873 1.225c-0.371 0.345-0.809 0.61-1.286 0.78s-0.984 0.24-1.489 0.208c-0.577-0.032-1.139-0.197-1.642-0.483s-0.933-0.683-1.257-1.162c-0.324-0.479-0.533-1.026-0.61-1.599s-0.022-1.156 0.163-1.704c0.281-0.811 0.83-1.501 1.556-1.959s1.586-0.654 2.439-0.559c0.094 0.010 0.19-0 0.28-0.030s0.173-0.078 0.243-0.141 0.126-0.141 0.164-0.228c0.038-0.087 0.058-0.181 0.057-0.275v-3.289c0 0-1.195-0.084-1.603-0.084-1.045-0.005-2.079 0.224-3.025 0.669s-1.781 1.096-2.443 1.905c-0.881 0.949-1.509 2.105-1.827 3.36-0.367 1.481-0.292 3.036 0.215 4.475s1.424 2.697 2.638 3.621c1.389 1.071 3.094 1.65 4.848 1.645 0.401 0 0.799-0.028 1.195-0.084 1.67-0.248 3.217-1.022 4.417-2.209 0.733-0.719 1.317-1.576 1.717-2.522s0.61-1.961 0.616-2.988v-9.249c1.623 1.253 3.579 2.001 5.624 2.151 0.095 0.006 0.19-0.008 0.28-0.041s0.171-0.084 0.24-0.15 0.123-0.146 0.159-0.234c0.036-0.088 0.054-0.183 0.052-0.278v-2.727l0.055-0.001z"></path>
</symbol>

<symbol id="icon-facebook" viewBox="0 0 32 32">
<path d="M24.59 0h-17.214c-0.976-0.001-1.942 0.192-2.842 0.566s-1.718 0.924-2.406 1.616c-0.685 0.69-1.225 1.51-1.59 2.411s-0.547 1.865-0.537 2.837v17.139c-0.012 0.972 0.17 1.937 0.535 2.838s0.906 1.72 1.591 2.41c0.687 0.692 1.504 1.241 2.405 1.616s1.866 0.567 2.841 0.566h7.816v-11.431h-2.987c-0.185-0.001-0.362-0.075-0.493-0.205s-0.206-0.307-0.208-0.492v-3.669c-0-0.094 0.018-0.188 0.054-0.275s0.089-0.166 0.156-0.233c0.067-0.067 0.146-0.119 0.233-0.155s0.181-0.054 0.275-0.053h2.969v-3.577c-0.083-0.845 0.020-1.699 0.302-2.5s0.737-1.531 1.332-2.137c0.596-0.609 1.317-1.081 2.114-1.383s1.65-0.426 2.499-0.365h3.042c0.093 0.001 0.185 0.020 0.271 0.056s0.163 0.089 0.228 0.156 0.116 0.145 0.151 0.232c0.035 0.086 0.052 0.179 0.050 0.272v3.102c0 0.092-0.018 0.183-0.053 0.267s-0.087 0.162-0.152 0.226c-0.065 0.065-0.142 0.116-0.227 0.15s-0.176 0.052-0.268 0.052h-1.843c-2.028 0-2.416 0.955-2.416 2.348v3.084h4.424c0.1-0.001 0.199 0.020 0.29 0.061s0.172 0.1 0.239 0.175c0.066 0.075 0.116 0.162 0.146 0.258s0.039 0.196 0.027 0.295l-0.443 3.671c-0.018 0.173-0.1 0.332-0.229 0.448s-0.298 0.178-0.471 0.176h-3.963v11.431h4.388c0.975 0.001 1.941-0.192 2.842-0.566s1.718-0.924 2.405-1.616c0.685-0.69 1.226-1.51 1.59-2.411s0.547-1.866 0.536-2.838v-17.119c0.013-0.975-0.17-1.944-0.537-2.847s-0.912-1.724-1.602-2.414c-0.691-0.693-1.513-1.241-2.418-1.614s-1.875-0.561-2.853-0.556z"></path>
</symbol>

<symbol id="icon-youtube" viewBox="0 0 32 32">
<path fill="#f9f9f9" style="fill: var(--color1, #f9f9f9)" d="M8 0h16c4.418 0 8 3.582 8 8v16c0 4.418-3.582 8-8 8h-16c-4.418 0-8-3.582-8-8v-16c0-4.418 3.582-8 8-8z"></path>
<path fill="#f4a600" style="fill: var(--color2, #f4a600)" d="M3.512 20.386c0.244 1.735 0.367 2.602 1.261 3.488s1.807 1.005 3.632 1.243c1.964 0.256 4.56 0.483 7.595 0.483s5.63-0.227 7.595-0.483c1.825-0.238 2.737-0.357 3.632-1.243s1.017-1.753 1.261-3.488c0.178-1.26 0.312-2.754 0.312-4.386s-0.135-3.126-0.312-4.386c-0.244-1.735-0.367-2.602-1.261-3.488s-1.807-1.005-3.632-1.243c-1.964-0.256-4.56-0.483-7.595-0.483s-5.63 0.227-7.595 0.483c-1.825 0.238-2.737 0.357-3.632 1.243s-1.017 1.753-1.261 3.488c-0.178 1.26-0.312 2.754-0.312 4.386s0.135 3.126 0.312 4.386zM14.101 12.534l4.452 2.74c0.391 0.241 0.586 0.361 0.653 0.515 0.058 0.135 0.058 0.288 0 0.423-0.067 0.154-0.262 0.275-0.653 0.515l-4.452 2.74c-0.425 0.262-0.637 0.392-0.813 0.377-0.153-0.013-0.292-0.091-0.383-0.214-0.104-0.141-0.104-0.391-0.104-0.89v-5.479c0-0.499 0-0.748 0.104-0.89 0.091-0.123 0.231-0.201 0.383-0.214 0.175-0.015 0.388 0.116 0.813 0.377z"></path>
</symbol>

<symbol id="icon-youtubee" viewBox="0 0 32 32">
  <path
    d="
      M8 0h16c4.418 0 8 3.582 8 8v16
      c0 4.418-3.582 8-8 8h-16
      c-4.418 0-8-3.582-8-8v-16
      c0-4.418 3.582-8 8-8z

      M3.512 20.386
      c0.244 1.735 0.367 2.602 1.261 3.488
      s1.807 1.005 3.632 1.243
      c1.964 0.256 4.56 0.483 7.595 0.483
      s5.63-0.227 7.595-0.483
      c1.825-0.238 2.737-0.357 3.632-1.243
      s1.017-1.753 1.261-3.488
      c0.178-1.26 0.312-2.754 0.312-4.386
      s-0.135-3.126-0.312-4.386
      c-0.244-1.735-0.367-2.602-1.261-3.488
      s-1.807-1.005-3.632-1.243
      c-1.964-0.256-4.56-0.483-7.595-0.483
      s-5.63 0.227-7.595 0.483
      c-1.825 0.238-2.737 0.357-3.632 1.243
      s-1.017 1.753-1.261 3.488
      c-0.178 1.26-0.312 2.754-0.312 4.386
      s0.135 3.126 0.312 4.386z

      M14.101 12.534
      l4.452 2.74
      c0.391 0.241 0.586 0.361 0.653 0.515
      c0.058 0.135 0.058 0.288 0 0.423
      c-0.067 0.154-0.262 0.275-0.653 0.515
      l-4.452 2.74
      c-0.425 0.262-0.637 0.392-0.813 0.377
      c-0.153-0.013-0.292-0.091-0.383-0.214
      c-0.104-0.141-0.104-0.391-0.104-0.89
      v-5.479
      c0-0.499 0-0.748 0.104-0.89
      c0.091-0.123 0.231-0.201 0.383-0.214
      c0.175-0.015 0.388 0.116 0.813 0.377z
    "
  />
</symbol>


<symbol id="icon-youtube-mob" viewBox="0 0 32 32">
<path fill="#eff3e5" style="fill: var(--color1, #eff3e5)" d="M8 0h16c4.418 0 8 3.582 8 8v16c0 4.418-3.582 8-8 8h-16c-4.418 0-8-3.582-8-8v-16c0-4.418 3.582-8 8-8z"></path>
<path fill="#1a4b38" style="fill: var(--color2, #1a4b38)" d="M3.512 20.386c0.244 1.735 0.367 2.602 1.261 3.488s1.807 1.005 3.632 1.243c1.964 0.256 4.56 0.483 7.595 0.483s5.63-0.227 7.595-0.483c1.825-0.238 2.737-0.357 3.632-1.243s1.017-1.753 1.261-3.488c0.178-1.26 0.312-2.754 0.312-4.386s-0.135-3.126-0.312-4.386c-0.244-1.735-0.367-2.602-1.261-3.488s-1.807-1.005-3.632-1.243c-1.964-0.256-4.56-0.483-7.595-0.483s-5.63 0.227-7.595 0.483c-1.825 0.238-2.737 0.357-3.632 1.243s-1.017 1.753-1.261 3.488c-0.178 1.26-0.312 2.754-0.312 4.386s0.135 3.126 0.312 4.386zM14.101 12.534l4.452 2.74c0.391 0.241 0.586 0.361 0.653 0.515 0.058 0.135 0.058 0.288 0 0.423-0.067 0.154-0.262 0.275-0.653 0.515l-4.452 2.74c-0.425 0.262-0.637 0.392-0.813 0.377-0.153-0.013-0.292-0.091-0.383-0.214-0.104-0.141-0.104-0.391-0.104-0.89v-5.479c0-0.499 0-0.748 0.104-0.89 0.091-0.123 0.231-0.201 0.383-0.214 0.175-0.015 0.388 0.116 0.813 0.377z"></path>
</symbol>

<symbol id="icon-watsapp" viewBox="0 0 29 32">
  <path fill="currentColor" d="M22.157 0.824l0.53 0.119c1.384 0.308 2.655 0.994 3.672 1.982s1.74 2.239 2.088 3.613c1.244 4.912 1.244 10.057 0 14.969-0.348 1.374-1.071 2.625-2.087 3.613s-2.288 1.674-3.671 1.983l-0.531 0.117c-3.133 0.698-6.349 0.955-9.553 0.761l-4.269 3.819c-0.104 0.093-0.232 0.156-0.369 0.183s-0.279 0.017-0.411-0.029c-0.132-0.046-0.249-0.127-0.339-0.234s-0.15-0.236-0.173-0.374l-0.727-4.339c-1.303-0.36-2.487-1.059-3.433-2.026s-1.618-2.166-1.95-3.476c-1.244-4.912-1.244-10.057 0-14.969 0.348-1.374 1.070-2.625 2.087-3.613s2.288-1.674 3.671-1.983l0.53-0.117c4.918-1.099 10.017-1.099 14.935 0zM8.541 6.411c-0.29-0.043-0.587 0.016-0.839 0.166h-0.022c-0.586 0.344-1.114 0.777-1.565 1.286-0.375 0.433-0.578 0.871-0.631 1.293-0.031 0.25-0.009 0.503 0.064 0.742l0.028 0.016c0.422 1.239 0.972 2.432 1.644 3.554 0.867 1.576 1.933 3.034 3.173 4.338l0.037 0.053 0.059 0.044 0.036 0.042 0.044 0.038c1.308 1.243 2.769 2.315 4.348 3.189 1.805 0.983 2.901 1.447 3.559 1.641v0.009c0.192 0.059 0.367 0.086 0.544 0.086 0.561-0.040 1.091-0.268 1.507-0.647 0.508-0.45 0.938-0.98 1.272-1.569v-0.011c0.314-0.594 0.208-1.154-0.245-1.533-0.91-0.797-1.894-1.503-2.94-2.11-0.7-0.38-1.411-0.15-1.699 0.234l-0.614 0.775c-0.316 0.384-0.888 0.331-0.888 0.331l-0.016 0.009c-4.269-1.089-5.408-5.411-5.408-5.411s-0.053-0.588 0.342-0.888l0.769-0.619c0.369-0.3 0.625-1.010 0.23-1.71-0.606-1.045-1.311-2.029-2.105-2.939-0.174-0.214-0.417-0.359-0.688-0.411zM15.753 4.532c-0.207 0-0.406 0.082-0.553 0.229s-0.229 0.345-0.229 0.553c0 0.207 0.082 0.406 0.229 0.553s0.345 0.229 0.553 0.229c1.977 0 3.618 0.646 4.917 1.883 0.667 0.677 1.188 1.479 1.529 2.357 0.342 0.88 0.499 1.819 0.458 2.76-0.004 0.103 0.012 0.205 0.047 0.302s0.089 0.185 0.159 0.261c0.14 0.153 0.336 0.243 0.543 0.252s0.41-0.065 0.562-0.206c0.153-0.14 0.243-0.336 0.252-0.543 0.047-1.157-0.146-2.312-0.564-3.392-0.421-1.085-1.061-2.072-1.882-2.898l-0.016-0.016c-1.611-1.54-3.651-2.324-6.005-2.324zM15.7 7.102c-0.207 0-0.406 0.082-0.553 0.229s-0.229 0.345-0.229 0.553c0 0.207 0.082 0.406 0.229 0.553s0.345 0.229 0.553 0.229h0.027c1.426 0.102 2.463 0.577 3.19 1.357 0.746 0.803 1.132 1.802 1.102 3.037-0.005 0.207 0.073 0.408 0.216 0.558s0.34 0.237 0.547 0.242c0.207 0.005 0.408-0.073 0.558-0.216s0.237-0.34 0.242-0.547c0.038-1.621-0.485-3.020-1.519-4.136v-0.003c-1.058-1.135-2.51-1.735-4.258-1.852l-0.027-0.003-0.078 0.002zM15.67 9.72c-0.105-0.009-0.21 0.003-0.31 0.035s-0.192 0.085-0.271 0.153c-0.079 0.069-0.144 0.153-0.19 0.247s-0.073 0.197-0.078 0.302c-0.005 0.105 0.010 0.21 0.046 0.308s0.091 0.189 0.163 0.266c0.072 0.077 0.158 0.138 0.254 0.181s0.2 0.065 0.304 0.067c0.653 0.034 1.071 0.231 1.333 0.495 0.264 0.266 0.461 0.692 0.497 1.36 0.002 0.105 0.025 0.208 0.068 0.304s0.104 0.182 0.181 0.253c0.077 0.071 0.167 0.127 0.266 0.163s0.203 0.051 0.308 0.046 0.207-0.032 0.302-0.078c0.094-0.046 0.178-0.111 0.247-0.19s0.121-0.171 0.153-0.271c0.032-0.1 0.044-0.205 0.035-0.31-0.050-0.938-0.344-1.766-0.946-2.376-0.605-0.61-1.429-0.907-2.363-0.957z"></path>
</symbol>

<symbol id="icon-telegram" viewBox="0 0 32 32">
  <path fill="currentColor" d="M32 16c0 8.836-7.164 16-16 16s-16-7.164-16-16c0-8.837 7.163-16 16-16s16 7.163 16 16zM16.573 11.812c-1.556 0.647-4.667 1.987-9.331 4.019-0.757 0.301-1.154 0.596-1.19 0.884-0.061 0.487 0.549 0.679 1.379 0.94 0.113 0.036 0.23 0.072 0.35 0.111 0.817 0.266 1.916 0.576 2.487 0.589 0.518 0.011 1.097-0.202 1.735-0.641 4.358-2.942 6.608-4.429 6.749-4.461 0.1-0.023 0.238-0.051 0.331 0.032s0.084 0.241 0.074 0.283c-0.060 0.258-2.454 2.483-3.693 3.634-0.386 0.359-0.66 0.614-0.716 0.672-0.125 0.13-0.253 0.253-0.376 0.372-0.759 0.732-1.328 1.28 0.031 2.176 0.653 0.431 1.176 0.787 1.698 1.142 0.57 0.388 1.138 0.775 1.873 1.257 0.187 0.123 0.366 0.25 0.54 0.374 0.663 0.473 1.259 0.897 1.994 0.829 0.428-0.039 0.869-0.441 1.093-1.64 0.53-2.834 1.572-8.973 1.813-11.503 0.021-0.222-0.005-0.505-0.027-0.63s-0.066-0.302-0.228-0.433c-0.192-0.156-0.488-0.188-0.62-0.186-0.602 0.011-1.525 0.332-5.968 2.18z"></path>
</symbol>

<symbol id="icon-search" viewBox="0 0 32 32">
<path d="M13.474 26.947c2.49-0 4.921-0.695 7.024-1.992 0.725-0.447 1.675-0.399 2.277 0.203l5.159 5.159c0.658 0.658 1.724 0.658 2.381 0s0.658-1.724 0-2.381l-5.159-5.159c-0.602-0.602-0.65-1.553-0.203-2.278 1.298-2.104 1.993-4.535 1.993-7.026 0-7.429-6.045-13.474-13.474-13.474s-13.474 6.045-13.474 13.474c0 7.429 6.045 13.474 13.474 13.474zM13.474 3.368c5.573 0 10.105 4.532 10.105 10.105s-4.532 10.105-10.105 10.105c-5.573 0-10.105-4.532-10.105-10.105s4.532-10.105 10.105-10.105z"></path>
</symbol>

<symbol id="icon-search-mob" viewBox="0 0 32 32">
<path d="M20.162 22.113l9.481 9.481c0.539 0.539 1.412 0.539 1.951 0s0.539-1.412 0-1.951l-9.481-9.481c3.904-4.874 3.596-12.008-0.922-16.526-4.848-4.848-12.708-4.848-17.555 0s-4.848 12.708 0 17.555c4.518 4.518 11.653 4.825 16.526 0.922zM5.586 19.241c-3.771-3.77-3.771-9.884 0-13.654s9.884-3.771 13.654 0c3.768 3.768 3.771 9.875 0.008 13.646-0.003 0.003-0.006 0.006-0.008 0.008s-0.006 0.006-0.008 0.008c-3.771 3.762-9.878 3.76-13.646-0.008z"></path>
</symbol>

<symbol id="icon-button-mob" viewBox="0 0 43 32">
<path d="M2.285-0c-0.606 0-1.187 0.241-1.616 0.669s-0.669 1.010-0.669 1.616c0 0.606 0.241 1.187 0.669 1.616s1.010 0.669 1.616 0.669h38.852c0.606 0 1.188-0.241 1.616-0.669s0.669-1.010 0.669-1.616c0-0.606-0.241-1.187-0.669-1.616s-1.010-0.669-1.616-0.669h-38.852zM0 15.998c0-0.606 0.241-1.187 0.669-1.616s1.010-0.669 1.616-0.669h38.852c0.606 0 1.188 0.241 1.616 0.669s0.669 1.010 0.669 1.616c0 0.606-0.241 1.187-0.669 1.616s-1.010 0.669-1.616 0.669h-38.852c-0.606 0-1.187-0.241-1.616-0.669s-0.669-1.010-0.669-1.616zM0 29.712c0-0.606 0.241-1.188 0.669-1.616s1.010-0.669 1.616-0.669h38.852c0.606 0 1.188 0.241 1.616 0.669s0.669 1.010 0.669 1.616c0 0.606-0.241 1.188-0.669 1.616s-1.010 0.669-1.616 0.669h-38.852c-0.606 0-1.187-0.241-1.616-0.669s-0.669-1.010-0.669-1.616z"></path>
</symbol>

<symbol id="icon-close-search" viewBox="0 0 32 32">
<path stroke-width="5.3333" stroke-miterlimit="4" stroke-linecap="round" stroke-linejoin="miter" d="M2.667 27.804l25.145-25.138M2.667 2.667l25.145 25.138"></path>
</symbol>

<symbol id="icon-close-modal" viewBox="0 0 32 32">
<path stroke-width="3.554" stroke-miterlimit="4" stroke-linecap="round" stroke-linejoin="miter" d="M30.216 30.216l-28.432-28.432M30.216 1.784l-28.432 28.432"></path>
</symbol>

<symbol id="icon-location" viewBox="0 0 25 32">
<path d="M11.385 31.566c0 0-11.385-9.588-11.385-19.023 0-3.326 1.321-6.517 3.674-8.869s5.542-3.674 8.869-3.674c3.326 0 6.517 1.321 8.869 3.674s3.673 5.542 3.673 8.869c0 9.435-11.385 19.023-11.385 19.023-0.633 0.583-1.676 0.577-2.314 0zM12.542 18.029c0.721 0 1.434-0.142 2.1-0.418s1.271-0.68 1.78-1.189c0.51-0.51 0.914-1.114 1.189-1.78s0.418-1.379 0.418-2.1c0-0.721-0.142-1.434-0.418-2.1s-0.68-1.271-1.189-1.78c-0.51-0.51-1.114-0.914-1.78-1.189s-1.379-0.418-2.1-0.418c-1.455 0-2.851 0.578-3.88 1.607s-1.607 2.425-1.607 3.88c0 1.455 0.578 2.851 1.607 3.88s2.425 1.607 3.88 1.607z"></path>
</symbol>

<symbol id="icon-phone" viewBox="0 0 34 32">
<path d="M23.637 20.529l-0.856 0.853c0 0-2.039 2.025-7.601-3.505s-3.524-7.556-3.524-7.556l0.538-0.538c1.331-1.321 1.457-3.445 0.296-4.996l-2.372-3.168c-1.438-1.92-4.215-2.174-5.862-0.536l-2.955 2.936c-0.815 0.813-1.361 1.864-1.295 3.031 0.169 2.987 1.521 9.412 9.058 16.907 7.994 7.947 15.496 8.264 18.562 7.977 0.971-0.090 1.815-0.584 2.494-1.261l2.673-2.658c1.807-1.794 1.299-4.872-1.013-6.127l-3.595-1.956c-1.517-0.823-3.362-0.582-4.548 0.597z"></path>
</symbol>

<symbol id="icon-email" viewBox="0 0 40 32">
<path d="M36 0h-32c-2.2 0-4 1.8-4 4v24c0 2.2 1.8 4 4 4h32c2.2 0 4-1.8 4-4v-24c0-2.2-1.8-4-4-4zM35.2 8.5l-13.080 8.18c-1.3 0.82-2.94 0.82-4.24 0l-13.080-8.18c-0.201-0.113-0.376-0.265-0.516-0.447s-0.242-0.391-0.299-0.614c-0.057-0.223-0.068-0.455-0.033-0.682s0.116-0.445 0.238-0.64c0.122-0.195 0.282-0.363 0.471-0.495s0.402-0.223 0.628-0.269c0.225-0.046 0.458-0.047 0.683-0.001s0.439 0.137 0.628 0.268l13.4 8.38 13.4-8.38c0.189-0.131 0.403-0.222 0.628-0.268s0.458-0.046 0.683 0.001 0.439 0.138 0.628 0.269c0.189 0.131 0.349 0.3 0.471 0.495s0.203 0.413 0.238 0.64c0.035 0.227 0.024 0.459-0.033 0.682s-0.159 0.432-0.299 0.614c-0.14 0.182-0.316 0.335-0.516 0.447z"></path>
</symbol>

<symbol id="icon-breadcrumbs-arrow" viewBox="0 0 19 32">
<path stroke-width="5.3301" stroke-miterlimit="4" stroke-linecap="round" stroke-linejoin="round" d="M2.673 29.325l13.325-13.325-13.325-13.325"></path>
</symbol>

<symbol id="icon-microscope" viewBox="0 0 32 32">
<path d="M18.93 25.786l-7.732-4.465 0.766-1.325 7.73 4.465-0.764 1.325z"></path>
<path d="M26.816 28.328c2.233-2.109 3.647-5.072 3.647-8.378 0-3.967-2.028-7.555-5.206-9.646-0.144-0.095-0.193-0.286-0.106-0.436l3.413-5.907c0.088-0.153 0.036-0.349-0.117-0.437l-0.031-0.018c-0.153-0.088-0.206-0.284-0.118-0.437l0.601-1.045c0.088-0.153 0.036-0.348-0.117-0.437l-1.857-1.072c-0.153-0.088-0.349-0.036-0.437 0.117l-0.602 1.042c-0.088 0.153-0.284 0.206-0.437 0.117l-0.062-0.036c-0.153-0.088-0.349-0.036-0.437 0.117l-8.845 15.322c-0.088 0.153-0.036 0.349 0.117 0.437l0.246 0.142c0.153 0.088 0.206 0.284 0.117 0.437l-0.816 1.412c-0.088 0.153-0.036 0.349 0.117 0.437l1.46 0.843c0.153 0.088 0.349 0.036 0.437-0.117l0.817-1.413c0.088-0.153 0.284-0.205 0.437-0.117l0.245 0.142c0.153 0.088 0.349 0.036 0.437-0.117l3.527-6.108c0.091-0.158 0.296-0.208 0.445-0.104 1.063 0.739 1.942 1.714 2.567 2.851 0.678 1.235 1.034 2.621 1.035 4.030 0 4.62-3.761 8.379-8.381 8.379h-6.433c-0.177 0-0.32 0.143-0.32 0.32v2.532c0 0.177 0.143 0.32 0.32 0.32h18.369c0.177 0 0.32-0.143 0.32-0.32v-2.532c0-0.177-0.143-0.32-0.32-0.32l-4.032-0c-0-0 0-0 0.001-0.001zM9.941 3.933v-2.364c0-0.085 0.069-0.154 0.154-0.154s0.157-0.070 0.156-0.156l-0.005-0.149c-0.001-0.166-0.134-0.3-0.3-0.3h-2.22c-0.168 0-0.306 0.137-0.304 0.304l0.005 0.134c0.001 0.092 0.074 0.166 0.166 0.166s0.167 0.075 0.167 0.167v2.031c0 0.177-0.143 0.32-0.32 0.32h-1.468c-0.177 0-0.32-0.143-0.32-0.32v-2.044c0-0.085 0.069-0.154 0.154-0.154s0.156-0.070 0.155-0.155l-0.003-0.149c-0.001-0.166-0.134-0.3-0.3-0.3h-2.222c-0.168 0-0.307 0.137-0.305 0.305l0.006 0.134c0.001 0.092 0.074 0.166 0.166 0.166s0.167 0.075 0.167 0.167v2.031c0 0.177-0.143 0.32-0.32 0.32h-2.454c-0.177 0-0.32 0.143-0.32 0.32v11.975c0 0.177 0.143 0.32 0.32 0.32h11.995c0.177 0 0.32-0.143 0.32-0.32v-11.975c0-0.177-0.143-0.32-0.32-0.32h-2.748c-0.001 0 0 0.001 0 0zM11.62 15.48h-9.856c-0.177 0-0.32-0.143-0.32-0.32v-9.839c0-0.177 0.143-0.32 0.32-0.32h1.385c0.177 0 0.32 0.143 0.32 0.32v7.74c0 0.61 0.498 1.105 1.1 1.105 0.603-0.002 1.083-0.496 1.083-1.105v-7.74c0-0.177 0.143-0.32 0.32-0.32h1.468c0.177 0 0.32 0.143 0.32 0.32v7.74c0 0.61 0.499 1.105 1.1 1.105 0.603-0.002 1.083-0.496 1.082-1.105v-7.74c0-0.177 0.143-0.32 0.32-0.32h1.357c0.177 0 0.32 0.143 0.32 0.32v9.839c0 0.177-0.143 0.32-0.32 0.32z"></path>
</symbol>

<symbol id="icon-regenerative" viewBox="0 0 27 32">
<path d="M24.218 20.070c-0.231 1.361-0.724 2.665-1.454 3.839-0.698 1.123-1.599 2.105-2.656 2.896-0.171 0.128-0.418 0.034-0.518-0.154-0.543-1.022-2.131-1.839-4.165-2.137-0.169-0.025-0.29-0.181-0.263-0.35 0.24-1.495 0.653-2.882 0.983-3.819 0.064-0.182 0.281-0.254 0.454-0.168 0.501 0.252 1.063 0.395 1.686 0.395 4.257 0 4.645-5.661 4.617-8.074-0.003-0.307-0.51-0.463-0.752-0.275-0.478 0.37-1.23 0.73-2.341 0.73h-1.524c-0.678-0-1.343 0.18-1.928 0.523s-1.067 0.836-1.398 1.427c-0.331 0.592-0.498 1.261-0.484 1.939 0.011 0.546 0.14 1.081 0.375 1.57 0.086 0.18 0.324 0.205 0.464 0.063 0.222-0.225 0.448-0.444 0.677-0.657 0.268-0.249 0.616 0.119 0.4 0.414-0.971 1.33-1.779 2.762-2.416 4.176-0.107 0.236-0.445 0.25-0.572 0.024-0.41-0.725-0.851-1.37-1.284-1.914-0.181-0.227 0.093-0.59 0.331-0.423 0.126 0.089 0.303 0.042 0.352-0.104 0.098-0.292 0.15-0.609 0.15-0.943-0.063-3.421-4.659-3.792-6.29-3.815-0.243-0.004-0.379 0.271-0.264 0.485 0.291 0.544 0.46 1.166 0.46 1.807v1.524c0 1.676 1.371 3.048 3.048 3.048 0.601 0 1.154-0.171 1.623-0.482 0.181-0.12 0.439-0.056 0.506 0.15 0.244 0.751 0.433 1.565 0.554 2.363 0.026 0.171-0.1 0.327-0.272 0.347-2.193 0.252-3.91 1.099-4.479 2.188-0.099 0.19-0.348 0.284-0.519 0.154-2.585-1.956-4.271-5.048-4.271-8.53 0-5.78 4.62-10.501 10.362-10.662 0.168-0.005 0.305 0.132 0.305 0.3v3.633c0 0.256 0.296 0.398 0.495 0.238l6.826-5.461c0.153-0.122 0.153-0.354 0-0.476l-6.826-5.461c-0.2-0.16-0.495-0.018-0.495 0.238v3.633c0 0.168-0.136 0.304-0.305 0.308-3.527 0.078-6.893 1.513-9.393 4.013-2.572 2.572-4.017 6.060-4.017 9.697s1.445 7.125 4.017 9.698c2.572 2.572 6.060 4.017 9.697 4.017 6.939 0 12.669-5.159 13.581-11.852 0.025-0.18-0.117-0.338-0.299-0.338h-2.474c-0.151 0-0.279 0.111-0.305 0.261z"></path>
</symbol>

<symbol id="icon-drop-minus" viewBox="0 0 32 32">
<path d="M29.333 23.067v1.867c0 0.221-0.179 0.4-0.4 0.4h-9.867c-0.221 0-0.4-0.179-0.4-0.4v-1.867c0-0.221 0.179-0.4 0.4-0.4h9.867c0.221 0 0.4 0.179 0.4 0.4zM23.32 15.513c-1.653-4.39-5.872-9.493-7.025-10.84-0.156-0.182-0.434-0.182-0.59-0-1.445 1.688-7.705 9.275-7.705 13.993 0 4.413 3.587 8 8 8 0.222 0 0.378-0.219 0.317-0.432-0.206-0.718-0.317-1.458-0.317-2.234 0-4.064 3.062-7.417 6.979-7.947 0.259-0.035 0.433-0.295 0.341-0.54z"></path>
</symbol>

<symbol id="icon-subtract" viewBox="0 0 29 32">
<path d="M14.441 31.968c-0.16 0-0.352 0-0.512-0.096-14.147-4.685-14.011-15.401-13.911-23.231l0.001-0.091v-2.175c0-0.896 0.704-1.6 1.6-1.6 0.064 0 7.406-0.064 11.636-4.319 0.608-0.608 1.667-0.608 2.275 0 4.264 4.255 11.572 4.319 11.635 4.319 0.896 0 1.6 0.704 1.6 1.6v2.175l0 0.020c0.131 7.836 0.311 18.572-13.875 23.334-0.16 0.064-0.32 0.096-0.512 0.096l0.064-0.032zM17.215 18.399c0.842 0.003 1.668-0.227 2.387-0.664 2.21-1.339 3.394-4.455 3.169-8.337-0.008-0.147-0.071-0.285-0.175-0.389s-0.242-0.166-0.389-0.175c-3.881-0.228-6.997 0.955-8.336 3.166-0.679 1.12-0.835 2.425-0.48 3.736 0.013 0.052 0.041 0.099 0.079 0.137s0.085 0.065 0.137 0.078c0.052 0.013 0.106 0.012 0.158-0.002s0.098-0.043 0.135-0.082l3.674-3.886c0.113-0.112 0.265-0.176 0.424-0.176s0.312 0.063 0.424 0.176 0.176 0.265 0.176 0.424c-0 0.159-0.063 0.312-0.176 0.424l-3.793 4.008c-0.776 0.808-1.267 1.847-1.398 2.959-0.006 0.058-0.011 0.116-0.016 0.175l-4.040-4.143c-0.108-0.113-0.167-0.264-0.165-0.421s0.065-0.306 0.176-0.416c0.111-0.111 0.26-0.174 0.416-0.176s0.307 0.057 0.421 0.165l1.44 1.507c0.040 0.042 0.091 0.072 0.147 0.085s0.115 0.011 0.17-0.009c0.055-0.019 0.103-0.054 0.138-0.1s0.057-0.101 0.061-0.159c0.075-0.745-0.095-1.495-0.484-2.135-0.99-1.634-3.274-2.51-6.111-2.343-0.147 0.009-0.285 0.071-0.389 0.175s-0.166 0.242-0.175 0.389c-0.17 2.837 0.709 5.121 2.343 6.114 0.54 0.329 1.161 0.502 1.794 0.5 0.459-0.004 0.915-0.088 1.345-0.248l2.896 2.896v0.933c-0.002 0.155 0.055 0.304 0.159 0.419s0.247 0.186 0.401 0.199c0.082 0.005 0.164-0.006 0.242-0.034s0.148-0.071 0.208-0.127c0.060-0.056 0.108-0.124 0.14-0.2s0.049-0.157 0.049-0.239v-2.211c-0.002-0.866 0.266-1.711 0.766-2.418 0.649 0.275 1.346 0.419 2.051 0.424z"></path>
</symbol>

<symbol id="icon-agriculture" viewBox="0 0 32 32">
<path d="M11.713 13.908c-0.1 0.061-0.186 0.141-0.255 0.236s-0.118 0.202-0.145 0.315c-0.027 0.114-0.032 0.231-0.014 0.347s0.059 0.226 0.12 0.326c0.817 1.332 1.511 2.653 1.973 3.854 0.085 0.22 0.253 0.398 0.469 0.493s0.46 0.102 0.68 0.017 0.398-0.253 0.493-0.469c0.096-0.215 0.102-0.46 0.017-0.68-0.514-1.337-1.268-2.76-2.117-4.146-0.123-0.201-0.321-0.345-0.55-0.4s-0.471-0.017-0.672 0.106zM20.97 13.060c0.19 0.139 0.317 0.348 0.353 0.581s-0.021 0.471-0.161 0.661c-1.028 1.407-1.934 3.289-2.572 4.725-0.047 0.107-0.115 0.203-0.2 0.283s-0.184 0.143-0.293 0.185-0.225 0.062-0.342 0.059c-0.117-0.003-0.232-0.029-0.338-0.076s-0.203-0.115-0.283-0.2-0.143-0.184-0.185-0.293c-0.042-0.109-0.062-0.225-0.059-0.342s0.029-0.232 0.076-0.338c0.644-1.449 1.612-3.481 2.762-5.053 0.139-0.19 0.348-0.317 0.581-0.354s0.471 0.022 0.661 0.161z"></path>
<path d="M18.88 5.366c1.809-2.068 10.451-4.594 12.685-5.22 0.248-0.070 0.482 0.141 0.439 0.395-0.393 2.347-2.017 11.61-3.468 13.27-1.147 1.312-4.615 0.652-6.66 0.115-0.232-0.061-0.334-0.331-0.201-0.531 1.384-2.077 2.948-4.088 4.333-5.704 0.15-0.179 0.224-0.411 0.205-0.644s-0.13-0.45-0.307-0.602c-0.178-0.152-0.408-0.229-0.642-0.212s-0.451 0.125-0.605 0.301c-1.38 1.61-2.963 3.637-4.39 5.765-0.15 0.224-0.485 0.209-0.606-0.032-0.904-1.808-2.267-5.201-0.783-6.899zM4.089 21.333h-3.733c-0.196 0-0.356 0.159-0.356 0.356v9.956c0 0.196 0.159 0.356 0.356 0.356h3.733c0.196 0 0.356-0.159 0.356-0.356v-1.119c0-0.191 0.15-0.347 0.341-0.355 0.873-0.034 1.96-0.069 2.368-0.053 1.588 0.065 2.773 0.444 3.973 0.827 1.118 0.356 2.248 0.717 3.726 0.83 0.372 0.028 0.733 0.065 1.084 0.1 1.265 0.128 2.388 0.242 3.316-0.1 1.184-0.436 7.952-3.748 8.798-4.62s0.423-3.225-2.2-2.789c-1.294 0.215-2.794 0.834-4.155 1.395-1.396 0.575-2.646 1.091-3.375 1.046-0.288-0.017-0.67-0.059-1.098-0.115-0.432-0.056-0.382-0.623 0.054-0.618l0.17 0.002c0 0 0.618 0.032 1.467-0.577s1.607-2.354 0.338-2.354c-1.269 0-2.622-0.436-2.622-0.436l-5.415-1.22c0 0-1.861-0.348-2.622 0-0.539 0.247-2.544 0.972-3.673 1.377-0.231 0.083-0.475-0.089-0.475-0.335v-0.841c0-0.196-0.159-0.356-0.356-0.356zM2.558 3.262c0 0 9.187 2.464 10.904 4.428 1.172 1.34 0.194 3.961-0.547 5.492-0.119 0.245-0.458 0.26-0.607 0.032-0.85-1.3-1.758-2.561-2.721-3.779-0.072-0.092-0.162-0.168-0.264-0.225s-0.214-0.093-0.33-0.107c-0.116-0.014-0.233-0.004-0.346 0.027s-0.217 0.085-0.309 0.158c-0.092 0.072-0.168 0.162-0.225 0.264s-0.093 0.214-0.107 0.33c-0.014 0.116-0.004 0.233 0.027 0.346s0.085 0.217 0.158 0.309c0.959 1.213 1.862 2.47 2.704 3.767 0.131 0.201 0.026 0.47-0.206 0.528-1.709 0.424-4.303 0.85-5.195-0.171-1.374-1.572-2.936-11.398-2.936-11.398z"></path>
</symbol>

<symbol id="icon-streamline" viewBox="0 0 32 32">
<path d="M23.998 1.141h5.714c0.303 0 0.594 0.12 0.808 0.335s0.335 0.505 0.335 0.808v5.714c-0 0.226-0.067 0.447-0.192 0.634s-0.304 0.334-0.512 0.421c-0.209 0.087-0.438 0.109-0.66 0.066s-0.425-0.152-0.585-0.312l-1.936-1.938-6.617 5.646c-0.247 0.21-0.558 0.33-0.882 0.34s-0.642-0.091-0.901-0.285l-8.391-6.295-7.186 4.107c-0.329 0.188-0.72 0.237-1.085 0.137s-0.677-0.341-0.865-0.67c-0.188-0.329-0.237-0.72-0.137-1.085s0.341-0.677 0.67-0.865l8-4.571c0.243-0.137 0.52-0.2 0.797-0.183s0.545 0.115 0.768 0.281l8.229 6.171 5.572-4.754-1.751-1.751c-0.16-0.16-0.269-0.363-0.314-0.585s-0.022-0.452 0.064-0.661c0.086-0.209 0.233-0.388 0.421-0.513s0.409-0.193 0.635-0.193zM31.141 12.569c0-0.268-0.075-0.53-0.217-0.756s-0.344-0.409-0.585-0.527-0.509-0.165-0.775-0.137c-0.266 0.028-0.519 0.129-0.73 0.294l-9.424 7.33-8.27-6.203c-0.224-0.166-0.49-0.264-0.768-0.281s-0.555 0.046-0.797 0.183l-8 4.572c-0.218 0.126-0.399 0.307-0.526 0.524s-0.193 0.465-0.194 0.717v11.428c0 0.789 0.64 1.429 1.429 1.429h27.429c0.788 0 1.428-0.64 1.428-1.429v-17.143zM20.304 21.696l7.979-6.206v12.793h-8.857v-6.286c0.318 0.001 0.627-0.105 0.878-0.302zM10.284 15.497v12.786h-6.571v-9.17l6.466-3.696 0.105 0.080z"></path>
</symbol>

<symbol id="icon-key-values-1" viewBox="0 0 32 32">
<path stroke-width="2.6667" stroke-miterlimit="4" stroke-linecap="butt" stroke-linejoin="miter" d="M28 16c0 6.627-5.373 12-12 12s-12-5.373-12-12c0-6.627 5.373-12 12-12s12 5.373 12 12z"></path>
<path stroke-width="2.6667" stroke-miterlimit="4" stroke-linecap="butt" stroke-linejoin="miter" d="M16 8v-4"></path>
<path stroke-width="2.6667" stroke-miterlimit="4" stroke-linecap="butt" stroke-linejoin="miter" d="M9.333 17.333h-4"></path>
<path stroke-width="2.6667" stroke-miterlimit="4" stroke-linecap="butt" stroke-linejoin="miter" d="M26.667 17.333h-4"></path>
<path stroke-width="2.6667" stroke-miterlimit="4" stroke-linecap="butt" stroke-linejoin="miter" d="M16 28v-4"></path>
<path d="M9.333 22.667v-1.333c0 0 3.333-1.333 6.667-1.333s6.667 1.333 6.667 1.333v1.333h-13.333zM15.533 14.067c-0.8-2.6-4.867-2-4.867-2s0.133 5.2 3.933 4.4c-0.267-1.933-1.267-2.467-1.267-2.467 1.867 0 2 2.267 2 2.267v3.067h1.333v-2.8c0 0 0-2.6 2-3.267 0 0-1.333 2-1.333 3.333 4.667 0.467 4.667-5.933 4.667-5.933s-5.933-0.667-6.467 3.4z"></path>
</symbol>

<symbol id="icon-key-values-2" viewBox="0 0 32 32">
<path d="M25.545 1.486l0.059 0.256c0.256 1.174 0.854 2.247 1.718 3.083s1.955 1.398 3.137 1.616c2.053 0.363 2.053 3.326 0 3.689-1.182 0.218-2.274 0.78-3.138 1.616s-1.462 1.909-1.719 3.083l-0.057 0.258c-0.448 1.988-3.264 1.972-3.694-0.016l-0.046-0.222c-0.246-1.179-0.838-2.258-1.701-3.098s-1.956-1.405-3.14-1.622c-2.048-0.363-2.048-3.321 0-3.684 1.185-0.217 2.279-0.782 3.141-1.623s1.454-1.921 1.7-3.101l1.115 0.238-1.115-0.24 0.046-0.222c0.43-1.991 3.246-2 3.694-0.011zM12.559 7.653c0.318 0.206 0.542 0.53 0.621 0.901s0.008 0.758-0.198 1.076c-0.206 0.318-0.53 0.542-0.901 0.621s-0.758 0.008-1.076-0.198c-2.027-1.314-3.858-2.142-5.3-2.468-1.504-0.338-2.206-0.062-2.48 0.213-0.201 0.201-0.409 0.622-0.359 1.486 0.053 0.862 0.361 1.991 0.969 3.33 0.533 1.146 1.157 2.249 1.865 3.296 1.419-1.698 2.963-3.289 4.617-4.759 0.283-0.252 0.655-0.38 1.033-0.358s0.732 0.194 0.984 0.478c0.252 0.283 0.38 0.655 0.358 1.033s-0.194 0.732-0.478 0.984c-1.727 1.53-3.321 3.202-4.768 4.999 0.929 1.154 1.919 2.256 2.967 3.303 1.095 1.093 2.206 2.087 3.303 2.967 1.659-1.34 3.214-2.805 4.651-4.382 0.126-0.139 0.279-0.251 0.449-0.331s0.354-0.126 0.541-0.134 0.375 0.019 0.552 0.083c0.177 0.064 0.339 0.161 0.478 0.288s0.251 0.279 0.331 0.449c0.080 0.17 0.125 0.354 0.134 0.541s-0.019 0.375-0.083 0.552c-0.064 0.177-0.161 0.339-0.288 0.478-1.363 1.502-2.829 2.906-4.388 4.203 1.154 0.768 2.267 1.397 3.296 1.865 1.342 0.608 2.469 0.917 3.33 0.969 0.864 0.050 1.284-0.155 1.486-0.361 0.288-0.288 0.572-1.038 0.169-2.653-0.384-1.543-1.31-3.49-2.754-5.623-0.212-0.314-0.291-0.7-0.219-1.071s0.289-0.7 0.603-0.912c0.314-0.212 0.7-0.291 1.071-0.219s0.7 0.289 0.912 0.603c1.552 2.292 2.667 4.553 3.159 6.532 0.473 1.902 0.464 3.979-0.919 5.367-0.99 0.987-2.347 1.269-3.68 1.189-1.335-0.080-2.818-0.526-4.34-1.218-1.424-0.647-2.944-1.538-4.491-2.635-1.411 1.020-2.915 1.903-4.494 2.638-1.522 0.692-3.006 1.138-4.34 1.218-1.333 0.080-2.69-0.201-3.678-1.191l1.010-1.010-1.013 1.010c-0.987-0.987-1.268-2.345-1.188-3.675 0.080-1.337 0.526-2.82 1.218-4.343 0.647-1.424 1.538-2.944 2.635-4.491-1.097-1.547-1.988-3.067-2.635-4.491-0.693-1.522-1.138-3.006-1.218-4.34-0.080-1.332 0.201-2.69 1.191-3.678 1.33-1.332 3.307-1.39 5.129-0.978 1.888 0.425 4.036 1.435 6.226 2.85zM5.699 20.663c-0.77 1.154-1.396 2.267-1.865 3.296-0.608 1.339-0.917 2.469-0.969 3.33-0.050 0.864 0.158 1.284 0.359 1.486 0.206 0.206 0.624 0.412 1.486 0.361 0.864-0.052 1.993-0.361 3.332-0.969 1.028-0.468 2.142-1.095 3.296-1.865-2.046-1.705-3.933-3.593-5.639-5.639zM10.858 18.286c0 0.758 0.301 1.484 0.837 2.020s1.262 0.837 2.020 0.837c0.758 0 1.484-0.301 2.020-0.837s0.837-1.262 0.837-2.020c0-0.758-0.301-1.484-0.837-2.020s-1.262-0.837-2.020-0.837-1.484 0.301-2.020 0.837c-0.536 0.536-0.837 1.262-0.837 2.020z"></path>
</symbol>

<symbol id="icon-key-values-3" viewBox="0 0 32 32">
<path d="M24.635 5.959c0.392-0.392 1.025-0.392 1.417 0 0.367 0.367 0.387 0.946 0.067 1.342l-0.067 0.075-4.771 4.767c0.321 0.042 0.633 0.125 0.938 0.246l2.429-2.429c0.392-0.392 1.025-0.392 1.417 0 0.367 0.367 0.388 0.946 0.067 1.338l-0.071 0.075-2.196 2.196 1.625 1.625c0.258 0.258 0.258 0.683 0 0.942l-0.308 0.308c-0.41 0.41-0.887 0.713-1.396 0.907-0.149-0.011-0.3-0.017-0.452-0.017-0.569 0-1.119 0.079-1.64 0.227-0.795-0.132-1.557-0.505-2.17-1.118l-3.954-3.954c-1.563-1.563-1.563-4.096 0-5.654l0.308-0.308 0.104-0.088c0.258-0.171 0.613-0.142 0.838 0.088l1.625 1.625 2.196-2.196c0.392-0.392 1.025-0.392 1.417 0 0.367 0.367 0.387 0.946 0.067 1.338l-0.071 0.075-2.429 2.429c0.117 0.296 0.196 0.604 0.237 0.921l4.775-4.758zM19.984 18.354l-0.741-0.741c-1.017-1.013-2.454-1.375-3.775-1.054 0.296-1.204 0.021-2.504-0.8-3.496l-0.254-0.279-1.921-1.921c-0.225-0.229-0.579-0.258-0.838-0.088v0.004l-0.104 0.088-0.308 0.308c-1.563 1.558-1.563 4.092 0 5.654l3.954 3.954c0.647 0.647 1.46 1.026 2.303 1.137 0.356-1.478 1.26-2.742 2.484-3.567zM7.323 15.109c0.258-0.171 0.612-0.142 0.837 0.088l1.921 1.921 0.254 0.279c0.821 0.992 1.096 2.292 0.8 3.496 1.321-0.321 2.758 0.042 3.775 1.054l1.921 1.921c0.258 0.258 0.258 0.683 0 0.942l-0.308 0.308c-1.563 1.563-4.096 1.563-5.658 0l-1.275-1.271-3.529 3.529c-0.392 0.392-1.021 0.392-1.413 0s-0.392-1.025 0-1.412l3.529-3.529-1.271-1.271c-1.563-1.563-1.563-4.096 0-5.654l0.308-0.308 0.104-0.087 0.004-0.004z"></path>
<path d="M29.333 24c0 2.945-2.388 5.333-5.333 5.333s-5.333-2.388-5.333-5.333c0-2.945 2.388-5.333 5.333-5.333s5.333 2.388 5.333 5.333zM26.365 21.044c-0.112 0.020-0.212 0.082-0.279 0.173l-2.737 4.185-1.569-1.427-0.073-0.053c-0.088-0.051-0.191-0.070-0.291-0.055s-0.193 0.065-0.261 0.141c-0.068 0.075-0.109 0.172-0.115 0.273s0.023 0.202 0.083 0.285l0.060 0.067 1.956 1.778c0.048 0.043 0.104 0.076 0.165 0.095s0.126 0.025 0.19 0.017c0.064-0.008 0.125-0.030 0.18-0.064s0.101-0.080 0.136-0.133l3.022-4.622c0.056-0.098 0.073-0.215 0.046-0.325s-0.094-0.206-0.189-0.269c-0.095-0.062-0.21-0.086-0.322-0.066z"></path>
</symbol>

<symbol id="icon-key-values-4" viewBox="0 0 36 32">
<path d="M17.809 32.001c-0.453 0-0.852-0.154-1.195-0.463-0.343-0.306-0.515-0.71-0.515-1.212 0-0.24 0.052-0.505 0.158-0.797s0.262-0.542 0.471-0.751l6.319-6.319c0.161-0.161 0.241-0.33 0.241-0.51s-0.080-0.35-0.241-0.511c-0.161-0.162-0.337-0.235-0.53-0.221s-0.358 0.091-0.495 0.23l-6.306 6.308c-0.21 0.21-0.447 0.367-0.71 0.471-0.263 0.105-0.531 0.158-0.802 0.158-0.477 0-0.881-0.166-1.214-0.498s-0.498-0.736-0.497-1.212c0-0.285 0.058-0.564 0.174-0.836 0.117-0.272 0.265-0.497 0.443-0.676l6.319-6.319c0.161-0.161 0.241-0.329 0.241-0.504s-0.080-0.344-0.241-0.506c-0.161-0.162-0.335-0.237-0.524-0.226s-0.352 0.087-0.489 0.226l-6.319 6.306c-0.185 0.185-0.415 0.336-0.689 0.452s-0.551 0.175-0.83 0.176c-0.471 0-0.873-0.168-1.208-0.504-0.335-0.334-0.502-0.736-0.502-1.208 0-0.269 0.052-0.536 0.156-0.801s0.261-0.501 0.471-0.71l5.88-5.88c0.161-0.161 0.241-0.331 0.241-0.511s-0.080-0.351-0.241-0.511c-0.161-0.161-0.335-0.235-0.524-0.224s-0.351 0.086-0.487 0.224l-5.88 5.891c-0.178 0.178-0.405 0.326-0.68 0.443-0.277 0.116-0.557 0.174-0.841 0.174-0.502 0-0.912-0.16-1.232-0.48-0.319-0.319-0.478-0.729-0.478-1.231 0-0.272 0.052-0.539 0.156-0.802 0.105-0.263 0.262-0.5 0.471-0.71l8.047-8.047c0.316-0.316 0.688-0.471 1.114-0.463s0.797 0.169 1.114 0.486l2.872 2.872c0.34 0.34 0.723 0.58 1.151 0.721 0.428 0.142 0.861 0.213 1.301 0.213 0.893 0 1.64-0.294 2.239-0.882 0.599-0.589 0.899-1.341 0.899-2.255 0-0.432-0.083-0.869-0.25-1.308s-0.427-0.836-0.78-1.19l-2.533-2.533c-0.625-0.625-0.98-1.347-1.064-2.165-0.085-0.817 0.159-1.505 0.732-2.066 0.395-0.44 0.857-0.767 1.386-0.982 0.528-0.217 1.077-0.326 1.649-0.326 0.578 0 1.147 0.113 1.707 0.339 0.561 0.225 1.072 0.568 1.533 1.030l7.939 7.945c0.389 0.389 0.697 0.865 0.925 1.427 0.227 0.56 0.341 1.18 0.341 1.862 0 0.618-0.115 1.201-0.347 1.751-0.23 0.55-0.536 1.016-0.919 1.399l-15.606 15.617c-0.2 0.2-0.435 0.355-0.704 0.463-0.267 0.11-0.536 0.165-0.808 0.165zM2.011 16.549c-0.659-0.575-1.159-1.234-1.501-1.979-0.34-0.745-0.51-1.505-0.51-2.279 0-0.662 0.123-1.303 0.369-1.924s0.623-1.185 1.13-1.694l7.296-7.305c0.406-0.408 0.855-0.726 1.345-0.956s1.020-0.345 1.588-0.345c0.581 0 1.145 0.115 1.694 0.345s1.025 0.549 1.431 0.956l7.717 7.715c0.201 0.203 0.356 0.431 0.463 0.686s0.162 0.518 0.163 0.789c0 0.478-0.166 0.889-0.497 1.232s-0.736 0.515-1.214 0.515c-0.294 0-0.569-0.054-0.825-0.163s-0.484-0.263-0.686-0.463l-2.848-2.837c-0.568-0.568-1.268-0.852-2.1-0.852s-1.532 0.284-2.102 0.852l-7.82 7.819c-0.425 0.425-0.932 0.615-1.52 0.571-0.587-0.043-1.112-0.271-1.575-0.682z"></path>
</symbol>

<symbol id="icon-fluent" viewBox="0 0 22 32">
<path d="M10.291 0.294c0.093-0.093 0.203-0.167 0.325-0.217s0.252-0.076 0.383-0.076c0.132 0 0.262 0.026 0.383 0.076s0.232 0.124 0.325 0.217c1.062 1.064 3.608 4.128 5.892 7.806 2.26 3.64 4.4 8.1 4.4 11.901 0 3.688-1.056 6.704-3.020 8.807-1.966 2.11-4.748 3.192-7.979 3.192s-6.012-1.082-7.979-3.192c-1.966-2.104-3.020-5.12-3.020-8.807 0-3.804 2.14-8.26 4.4-11.901 2.284-3.68 4.83-6.74 5.892-7.806z"></path>
</symbol>

<symbol id="icon-weight" viewBox="0 0 28 32">
<path d="M14.217 7.111c0.504 0 0.926-0.171 1.268-0.512s0.511-0.763 0.51-1.266c-0.001-0.503-0.172-0.924-0.512-1.266s-0.762-0.512-1.266-0.512c-0.504 0-0.926 0.171-1.266 0.512s-0.511 0.763-0.512 1.266c-0.001 0.503 0.169 0.925 0.512 1.268s0.764 0.513 1.266 0.51zM19.239 7.111h3.111c0.889 0 1.659 0.296 2.311 0.889s1.052 1.319 1.2 2.178l2.533 17.778c0.148 1.067-0.125 2.008-0.821 2.823s-1.592 1.223-2.69 1.221h-21.333c-1.096 0-1.993-0.407-2.69-1.221s-0.971-1.755-0.821-2.823l2.533-17.778c0.148-0.859 0.548-1.585 1.2-2.178s1.422-0.889 2.311-0.889h3.111c-0.089-0.296-0.163-0.585-0.222-0.866s-0.089-0.585-0.089-0.912c0-1.481 0.518-2.741 1.556-3.778s2.296-1.556 3.778-1.556c1.481 0 2.741 0.519 3.778 1.556s1.556 2.296 1.556 3.778c0 0.326-0.029 0.63-0.089 0.912s-0.133 0.571-0.222 0.866z"></path>
</symbol>

<symbol id="icon-duration" viewBox="0 0 32 32">
<path d="M14.153 1.26c0.095 0.418 0.019 0.857-0.209 1.22s-0.592 0.62-1.011 0.715c-0.318 0.072-0.632 0.156-0.943 0.252-0.203 0.063-0.416 0.085-0.628 0.065s-0.417-0.081-0.605-0.18c-0.188-0.099-0.354-0.235-0.49-0.398s-0.238-0.352-0.3-0.555c-0.063-0.203-0.085-0.416-0.065-0.628s0.081-0.417 0.18-0.605c0.099-0.188 0.235-0.354 0.398-0.49s0.352-0.238 0.555-0.3c0.388-0.121 0.782-0.226 1.181-0.316 0.207-0.047 0.422-0.053 0.631-0.017s0.41 0.113 0.59 0.226c0.18 0.113 0.336 0.261 0.458 0.434s0.21 0.37 0.257 0.577zM17.47 1.26c0.095-0.418 0.352-0.782 0.715-1.011s0.802-0.304 1.22-0.209c7.207 1.634 12.588 8.077 12.588 15.779 0 8.936-7.245 16.18-16.18 16.18-7.703 0-14.146-5.38-15.781-12.587-0.084-0.414-0.002-0.845 0.227-1.2s0.589-0.606 1.001-0.699c0.412-0.094 0.845-0.022 1.205 0.199s0.619 0.575 0.722 0.985c0.515 2.255 1.625 4.331 3.214 6.012s3.6 2.905 5.823 3.545c2.223 0.64 4.576 0.673 6.816 0.095s4.284-1.745 5.92-3.381c1.636-1.636 2.803-3.68 3.381-5.92s0.545-4.593-0.095-6.816c-0.64-2.223-1.864-4.233-3.545-5.823s-3.757-2.699-6.012-3.214c-0.418-0.095-0.782-0.353-1.010-0.716s-0.303-0.802-0.208-1.221zM7.096 4.040c0.145 0.156 0.257 0.339 0.331 0.538s0.108 0.411 0.1 0.624c-0.008 0.212-0.058 0.421-0.146 0.615s-0.215 0.367-0.371 0.512c-0.239 0.221-0.47 0.451-0.691 0.689-0.294 0.306-0.696 0.484-1.12 0.496s-0.836-0.143-1.147-0.431c-0.311-0.288-0.496-0.688-0.516-1.111s0.128-0.838 0.411-1.154c0.275-0.298 0.562-0.585 0.861-0.862 0.156-0.145 0.339-0.257 0.538-0.331s0.411-0.108 0.624-0.1c0.212 0.008 0.421 0.058 0.615 0.146s0.367 0.215 0.512 0.371zM15.811 6.111c0.429 0 0.841 0.17 1.144 0.474s0.474 0.715 0.474 1.144v7.42l4.38 4.38c0.295 0.305 0.458 0.714 0.454 1.138s-0.174 0.83-0.474 1.13-0.706 0.47-1.13 0.474c-0.424 0.004-0.833-0.159-1.138-0.454l-4.854-4.854c-0.303-0.303-0.474-0.715-0.474-1.144v-8.090c0-0.429 0.17-0.841 0.474-1.144s0.715-0.474 1.144-0.474zM2.37 9.975c0.41 0.126 0.753 0.411 0.954 0.79s0.242 0.823 0.116 1.233c-0.096 0.311-0.18 0.626-0.252 0.943-0.103 0.41-0.362 0.763-0.722 0.985s-0.792 0.293-1.205 0.199c-0.412-0.093-0.771-0.344-1.001-0.699s-0.311-0.786-0.227-1.2c0.091-0.399 0.196-0.793 0.316-1.181 0.126-0.41 0.411-0.753 0.79-0.954s0.823-0.242 1.233-0.116z"></path>
</symbol>

<symbol id="icon-temperature" viewBox="0 0 17 32">
<path d="M8.642 4.001c-1.59 0-2.881 1.344-2.881 3.001v10.283c0 1.081-0.426 1.994-0.918 2.657-0.63 0.85-1.002 1.907-1.002 3.063 0 2.763 2.148 5.001 4.801 5.001s4.801-2.238 4.801-5.001c0-1.157-0.372-2.213-1.002-3.057-0.492-0.663-0.918-1.575-0.918-2.657v-10.29c0-1.657-1.29-3.001-2.881-3.001zM1.92 7.001c0-3.863 3.007-7.001 6.721-7.001s6.721 3.132 6.721 7.001v10.277c0 0.006 0.006 0.019 0.012 0.037 0.012 0.037 0.048 0.1 0.102 0.175 1.134 1.525 1.806 3.438 1.806 5.507 0 4.97-3.871 9.002-8.642 9.002s-8.642-4.026-8.642-8.995c0-2.075 0.672-3.988 1.806-5.507 0.054-0.075 0.090-0.137 0.102-0.175 0.006-0.019 0.012-0.031 0.012-0.037v-10.283zM11.522 23.005c0 1.657-1.29 3.001-2.881 3.001s-2.881-1.344-2.881-3.001c0-1.306 0.804-2.419 1.92-2.832v-11.171c0-0.55 0.432-1 0.96-1s0.96 0.45 0.96 1v11.171c1.116 0.413 1.92 1.525 1.92 2.832z"></path>
</symbol>

<symbol id="icon-analize" viewBox="0 0 61 32">
<path d="M54.27 0c-0.894 0-1.775 0.209-2.574 0.609s-1.494 0.982-2.029 1.698-0.896 1.547-1.054 2.426c-0.158 0.88-0.109 1.784 0.144 2.642l-8.921 8.92c-1.177-0.392-2.449-0.392-3.625 0l-6.614-6.614c0.218-0.849 0.238-1.737 0.060-2.595s-0.55-1.665-1.087-2.357c-0.538-0.693-1.226-1.253-2.014-1.639s-1.652-0.586-2.529-0.586-1.742 0.2-2.529 0.586c-0.787 0.386-1.476 0.946-2.014 1.639s-0.909 1.499-1.088 2.357c-0.178 0.858-0.157 1.746 0.060 2.595l-11.061 11.054c-1.228-0.364-2.542-0.307-3.735 0.16s-2.196 1.318-2.85 2.419c-0.655 1.101-0.924 2.388-0.765 3.659s0.737 2.453 1.642 3.358 2.087 1.484 3.358 1.643c1.271 0.159 2.558-0.11 3.659-0.764s1.952-1.657 2.42-2.85c0.467-1.193 0.524-2.507 0.161-3.735l10.921-10.92c1.177 0.392 2.448 0.392 3.625 0l6.615 6.615c-0.218 0.849-0.238 1.737-0.060 2.595s0.55 1.665 1.087 2.357c0.538 0.693 1.226 1.253 2.014 1.639s1.652 0.586 2.529 0.586c0.877 0 1.742-0.2 2.529-0.586s1.476-0.946 2.014-1.639c0.537-0.693 0.909-1.499 1.087-2.357s0.157-1.746-0.060-2.595l9.060-9.055c0.791 0.233 1.623 0.294 2.439 0.177s1.598-0.407 2.292-0.852 1.285-1.035 1.731-1.728c0.446-0.693 0.738-1.475 0.856-2.291s0.059-1.648-0.174-2.439c-0.232-0.791-0.632-1.523-1.172-2.147s-1.208-1.123-1.958-1.466c-0.75-0.342-1.565-0.52-2.39-0.519z"></path>
</symbol>

<symbol id="icon-laboratory" viewBox="0 0 32 32">
<path d="M16 10.667h-8c-0.265 0-0.52 0.105-0.707 0.293s-0.293 0.442-0.293 0.707c0 0.265 0.105 0.52 0.293 0.707s0.442 0.293 0.707 0.293h8c0.265 0 0.52-0.105 0.707-0.293s0.293-0.442 0.293-0.707-0.105-0.52-0.293-0.707c-0.188-0.188-0.442-0.293-0.707-0.293zM16 15.401h-8c-0.131 0-0.261 0.026-0.383 0.076s-0.232 0.124-0.324 0.217c-0.093 0.093-0.167 0.203-0.217 0.324s-0.076 0.251-0.076 0.383 0.026 0.261 0.076 0.383c0.050 0.121 0.124 0.232 0.217 0.324s0.203 0.166 0.324 0.217c0.121 0.050 0.251 0.076 0.383 0.076h8c0.131 0 0.261-0.026 0.383-0.076s0.232-0.124 0.324-0.217c0.093-0.093 0.167-0.203 0.217-0.324s0.076-0.251 0.076-0.383c0-0.131-0.026-0.261-0.076-0.383s-0.124-0.232-0.217-0.324c-0.093-0.093-0.203-0.166-0.324-0.217s-0.251-0.076-0.383-0.076zM12.68 20.134h-4.68c-0.265 0-0.52 0.105-0.707 0.293s-0.293 0.442-0.293 0.707c0 0.265 0.105 0.52 0.293 0.707s0.442 0.293 0.707 0.293h4.68c0.265 0 0.52-0.105 0.707-0.293s0.293-0.442 0.293-0.707c0-0.265-0.105-0.52-0.293-0.707s-0.442-0.293-0.707-0.293z"></path>
<path d="M11.44 28.001h-6.773c-0.177 0-0.346-0.070-0.471-0.195s-0.195-0.295-0.195-0.471v-20c0-0.177 0.070-0.346 0.195-0.471s0.295-0.195 0.471-0.195h17.333c0.177 0 0.346 0.070 0.471 0.195s0.195 0.295 0.195 0.471v1.547h2.493c0.532 0.023 1.050 0.179 1.507 0.453v-4.667c0-0.53-0.211-1.039-0.586-1.414s-0.884-0.586-1.414-0.586h-6.667c-0.056-0.003-0.11-0.019-0.159-0.047s-0.090-0.067-0.121-0.113c-0.45-0.763-1.092-1.395-1.861-1.835s-1.64-0.67-2.526-0.67-1.756 0.231-2.526 0.67c-0.769 0.439-1.411 1.072-1.861 1.835-0.031 0.047-0.072 0.085-0.121 0.113s-0.103 0.044-0.159 0.047h-6.667c-0.53 0-1.039 0.211-1.414 0.586s-0.586 0.884-0.586 1.414v25.333c0 0.531 0.211 1.039 0.586 1.414s0.884 0.586 1.414 0.586h11.053c-0.926-1.023-1.492-2.319-1.613-3.693-0.006-0.102-0.006-0.204 0-0.307z"></path>
<path d="M30.865 25.054l-4.707-5.053v-7.787c-0.004-0.264-0.11-0.517-0.297-0.703s-0.439-0.293-0.703-0.297h-4.733c-0.265 0-0.52 0.105-0.707 0.293s-0.293 0.442-0.293 0.707v7.787l-4.76 5.053c-0.167 0.206-0.319 0.425-0.453 0.653-0.003 0.049-0.003 0.098 0 0.147-0.108 0.196-0.197 0.401-0.267 0.613 0.008 0.021 0.008 0.045 0 0.067-0.289 0.989-0.193 2.051 0.267 2.973v0.080c0.097 0.186 0.208 0.365 0.333 0.533l0.107 0.16c0.16 0.186 0.334 0.36 0.52 0.52v0.080c0.751 0.619 1.693 0.959 2.667 0.96h9.693c1.099 0.020 2.161-0.392 2.96-1.147 0.404-0.372 0.73-0.82 0.959-1.319s0.356-1.039 0.374-1.588c0 0 0-0.107 0-0.173-0.020-0.938-0.359-1.84-0.96-2.56zM21.425 20.454v-7.24h2.733v7.24c-0.001 0.256 0.094 0.504 0.267 0.693l3.36 3.56h-9.987l3.347-3.56c0.176-0.188 0.276-0.436 0.28-0.693z"></path>
</symbol>

<symbol id="icon-farm" viewBox="0 0 32 32">
<path d="M17.104 27.554c-0.147 0.221-0.375 0.374-0.635 0.426s-0.53-0.001-0.751-0.148c-3.767-2.506-8.193-3.84-12.717-3.833-0.265 0-0.52-0.105-0.707-0.293s-0.293-0.442-0.293-0.707 0.105-0.52 0.293-0.707c0.188-0.188 0.442-0.293 0.707-0.293 4.919-0.008 9.73 1.443 13.825 4.167 0.221 0.147 0.374 0.375 0.426 0.635s-0.001 0.53-0.148 0.751zM3 18c-0.265 0-0.52 0.105-0.707 0.293s-0.293 0.442-0.293 0.707 0.105 0.52 0.293 0.707c0.188 0.188 0.442 0.293 0.707 0.293 7.069-0.016 13.858 2.755 18.896 7.714 0.093 0.096 0.204 0.172 0.327 0.224s0.255 0.079 0.388 0.079c0.133 0 0.265-0.026 0.388-0.077s0.234-0.127 0.328-0.222 0.167-0.208 0.216-0.332c0.049-0.124 0.073-0.257 0.070-0.39s-0.032-0.265-0.087-0.386-0.133-0.231-0.23-0.322c-5.411-5.326-12.704-8.304-20.296-8.286zM29 20c-2.044-0.001-4.082 0.229-6.074 0.686 0.687 0.521 1.353 1.069 2 1.645 1.347-0.221 2.709-0.331 4.074-0.331 0.265 0 0.52 0.105 0.707 0.293s0.293 0.442 0.293 0.707-0.105 0.52-0.293 0.707c-0.187 0.188-0.442 0.293-0.707 0.293-0.75 0-1.491 0.036-2.231 0.107 0.693 0.723 1.357 1.478 1.992 2.267 0.087 0.102 0.153 0.22 0.193 0.348s0.055 0.262 0.042 0.396c-0.013 0.133-0.052 0.263-0.116 0.381s-0.15 0.222-0.255 0.306c-0.105 0.084-0.225 0.146-0.354 0.182s-0.264 0.047-0.397 0.030-0.261-0.060-0.377-0.127c-0.116-0.067-0.217-0.157-0.297-0.264-2.898-3.635-6.58-6.568-10.771-8.581s-8.782-3.053-13.43-3.044c-0.265 0-0.52-0.105-0.707-0.293s-0.293-0.442-0.293-0.707 0.105-0.52 0.293-0.707c0.188-0.188 0.442-0.293 0.707-0.293 2.012 0 4.021 0.183 6 0.547v-4.547c0-0.155 0.036-0.308 0.106-0.447s0.17-0.26 0.294-0.353l8-6c0.173-0.13 0.384-0.2 0.6-0.2s0.427 0.070 0.6 0.2l8 6c0.124 0.093 0.225 0.214 0.294 0.353s0.106 0.292 0.106 0.447v4.063c0.664-0.040 1.33-0.063 2-0.063 0.265 0 0.52 0.105 0.707 0.293s0.293 0.442 0.293 0.707-0.105 0.52-0.293 0.707c-0.187 0.188-0.442 0.293-0.707 0.293-3.591-0.007-7.156 0.615-10.533 1.836 0.787 0.417 1.556 0.866 2.307 1.347 2.671-0.787 5.441-1.186 8.225-1.184 0.265 0 0.52 0.105 0.707 0.293s0.293 0.442 0.293 0.707-0.105 0.52-0.293 0.707c-0.187 0.188-0.442 0.293-0.707 0.293zM16.009 16.659c1.616-0.694 3.285-1.257 4.991-1.683v-2.976h-6v4.25c0.339 0.125 0.675 0.266 1.009 0.409z"></path>
</symbol>

<symbol id="icon-delivery" viewBox="0 0 43 32">
<path d="M2.252 4.518c0-2.492 2.026-4.518 4.518-4.518h15.812c1.673 0 3.134 0.911 3.911 2.259h2.852c2.287 0 4.348 1.384 5.224 3.494l3.092 7.504 0.12 0.296h1.744c1.87 0 3.388 1.518 3.388 3.388v4.518c0 1.87-1.518 3.388-3.388 3.388h-0.028c0.014 0.184 0.028 0.374 0.028 0.565 0 3.431-2.781 6.212-6.212 6.212s-6.212-2.781-6.212-6.212c0-0.191 0.007-0.381 0.028-0.565h-10.214c0.014 0.184 0.028 0.374 0.028 0.565 0 3.431-2.781 6.212-6.212 6.212s-6.212-2.781-6.212-6.212c0-0.254 0.014-0.501 0.042-0.741-1.341-0.452-2.301-1.722-2.301-3.212v-3.388c-1.249 0-2.259-1.009-2.259-2.259v-6.776c0-1.249 1.009-2.259 2.259-2.259v-2.259h-0.007zM27.099 6.776v6.776h5.795l-2.499-6.078c-0.176-0.424-0.586-0.699-1.045-0.699h-2.252zM13.546 25.412c0-1.56-1.264-2.824-2.824-2.824s-2.824 1.263-2.824 2.824c0 1.56 1.264 2.824 2.824 2.824s2.824-1.264 2.824-2.824zM33.311 28.235c1.56 0 2.824-1.264 2.824-2.824s-1.264-2.824-2.824-2.824c-1.56 0-2.824 1.263-2.824 2.824s1.263 2.824 2.824 2.824z"></path>
</symbol>

<symbol id="icon-full-screen" viewBox="0 0 32 32">
<path stroke-width="3.5556" stroke-miterlimit="4" stroke-linecap="round" stroke-linejoin="round" d="M8.889 1.778h-7.111M1.778 1.778v7.111M1.778 1.778l8.889 8.889M23.111 1.778h7.111M30.222 1.778v7.111M30.222 1.778l-8.889 8.889M8.889 30.222h-7.111M1.778 30.222v-7.111M1.778 30.222l8.889-8.889M23.111 30.222h7.111M30.222 30.222v-7.111M30.222 30.222l-8.889-8.889"></path>
</symbol>

<symbol id="icon-small-screen" viewBox="0 0 32 32">
<path d="M30.012 10.008h-5.16l6.58-6.58c0.377-0.377 0.588-0.887 0.588-1.42s-0.212-1.043-0.588-1.42c-0.377-0.377-0.887-0.588-1.42-0.588s-1.043 0.212-1.42 0.588l-6.58 6.56v-5.14c0-0.53-0.211-1.039-0.586-1.414s-0.884-0.586-1.414-0.586c-0.53 0-1.039 0.211-1.414 0.586s-0.586 0.884-0.586 1.414v10c0 0.53 0.211 1.039 0.586 1.414s0.884 0.586 1.414 0.586h10c0.53 0 1.039-0.211 1.414-0.586s0.586-0.884 0.586-1.414c0-0.53-0.211-1.039-0.586-1.414s-0.884-0.586-1.414-0.586zM12.012 18.008h-10c-0.53 0-1.039 0.211-1.414 0.586s-0.586 0.884-0.586 1.414c0 0.53 0.211 1.039 0.586 1.414s0.884 0.586 1.414 0.586h5.14l-6.56 6.58c-0.187 0.186-0.336 0.407-0.438 0.651s-0.154 0.505-0.154 0.769 0.052 0.525 0.154 0.769c0.102 0.244 0.25 0.465 0.438 0.651 0.186 0.187 0.407 0.336 0.651 0.438s0.505 0.154 0.769 0.154c0.264 0 0.525-0.052 0.769-0.154s0.465-0.25 0.651-0.438l6.58-6.58v5.16c0 0.53 0.211 1.039 0.586 1.414s0.884 0.586 1.414 0.586c0.53 0 1.039-0.211 1.414-0.586s0.586-0.884 0.586-1.414v-10c0-0.53-0.211-1.039-0.586-1.414s-0.884-0.586-1.414-0.586z"></path>
</symbol>

<symbol id="icon-successfull-send" viewBox="0 0 39 32">
<path d="M33.248 0.273c0.422-0.254 0.926-0.334 1.406-0.225s0.899 0.401 1.169 0.813l1.886 2.876c0.246 0.376 0.351 0.826 0.297 1.272s-0.264 0.858-0.592 1.164l-0.006 0.008-0.027 0.025-0.109 0.101-0.429 0.41c-2.371 2.3-4.671 4.673-6.895 7.116-4.185 4.602-9.154 10.625-12.499 16.469-0.933 1.631-3.213 1.981-4.566 0.573l-12.352-12.834c-0.177-0.184-0.315-0.402-0.406-0.64s-0.134-0.493-0.124-0.748c0.009-0.255 0.069-0.506 0.177-0.737s0.261-0.439 0.451-0.61l3.733-3.368c0.328-0.296 0.749-0.468 1.19-0.488s0.876 0.114 1.229 0.38l6.303 4.726c9.846-9.709 15.429-13.434 20.164-16.282z"></path>
</symbol>

  </defs>
</svg>
