<svg width="24" height="24" viewBox="0 0 24 24" fill="none" xmlns="http://www.w3.org/2000/svg">
<rect width="24" height="24" rx="12" fill="#1A4B38"/>
<path d="M16.9639 6.25226C17.1161 6.04723 17.3409 5.90808 17.5923 5.86323C17.8436 5.81838 18.1026 5.87123 18.3163 6.01098C18.53 6.15073 18.6823 6.36681 18.742 6.61508C18.8017 6.86334 18.7643 7.12503 18.6375 7.34666L11.8375 17.7467C11.7581 17.8676 11.6535 17.9699 11.5307 18.0466C11.408 18.1232 11.2701 18.1723 11.1266 18.1906C10.983 18.2088 10.8372 18.1957 10.6992 18.1523C10.5612 18.1088 10.4343 18.0359 10.3271 17.9387L5.92714 13.9387L5.79274 13.7883C5.65938 13.602 5.59388 13.3757 5.60715 13.1471C5.62043 12.9184 5.71167 12.7012 5.86569 12.5316C6.0197 12.3621 6.22717 12.2505 6.45351 12.2153C6.67985 12.1802 6.9114 12.2238 7.10954 12.3387L7.27434 12.4587L10.8055 15.6683L16.9639 6.25226Z" fill="#EFF3E5"/>
</svg>
