<svg width="40" height="40" viewBox="0 0 40 40" fill="none" xmlns="http://www.w3.org/2000/svg">
<path d="M22.7273 11.6872C22.8176 11.5918 22.8881 11.4795 22.9349 11.3567C22.9817 11.234 23.0039 11.1033 23.0002 10.972C22.9965 10.8407 22.9669 10.7114 22.9133 10.5915C22.8596 10.4716 22.7828 10.3635 22.6873 10.2732C22.5919 10.183 22.4796 10.1125 22.3568 10.0657C22.2341 10.0189 22.1034 9.99669 21.9721 10.0004C21.8408 10.0041 21.7115 10.0337 21.5916 10.0873C21.4717 10.141 21.3636 10.2178 21.2733 10.3132L12.7733 19.3132C12.5978 19.4989 12.5 19.7447 12.5 20.0002C12.5 20.2558 12.5978 20.5016 12.7733 20.6872L21.2733 29.6882C21.363 29.7858 21.4711 29.8646 21.5914 29.92C21.7117 29.9754 21.8419 30.0064 21.9743 30.0111C22.1067 30.0158 22.2387 29.9942 22.3626 29.9474C22.4866 29.9007 22.6 29.8298 22.6963 29.7388C22.7927 29.6479 22.8699 29.5387 22.9237 29.4176C22.9775 29.2965 23.0067 29.166 23.0095 29.0335C23.0124 28.9011 22.989 28.7694 22.9405 28.6461C22.8921 28.5228 22.8196 28.4103 22.7273 28.3153L14.8753 20.0002L22.7273 11.6872Z" fill="#1A4B38"/>
<circle cx="20" cy="20" r="19" stroke="#1A4B38" stroke-width="2"/>
</svg>
