<svg width="40" height="40" viewBox="0 0 40 40" fill="none" xmlns="http://www.w3.org/2000/svg">
<path d="M17.2727 28.3128C17.1824 28.4082 17.1119 28.5205 17.0651 28.6433C17.0183 28.766 16.9961 28.8967 16.9998 29.028C17.0035 29.1593 17.0331 29.2886 17.0867 29.4085C17.1404 29.5284 17.2172 29.6365 17.3127 29.7268C17.4081 29.817 17.5204 29.8875 17.6432 29.9343C17.7659 29.9811 17.8966 30.0033 18.0279 29.9996C18.1592 29.9959 18.2885 29.9663 18.4084 29.9127C18.5283 29.859 18.6364 29.7822 18.7267 29.6868L27.2267 20.6868C27.4022 20.5011 27.5 20.2553 27.5 19.9998C27.5 19.7442 27.4022 19.4984 27.2267 19.3128L18.7267 10.3118C18.637 10.2142 18.5289 10.1354 18.4086 10.08C18.2883 10.0246 18.1581 9.9936 18.0257 9.98889C17.8933 9.98419 17.7613 10.0058 17.6374 10.0526C17.5134 10.0993 17.4 10.1702 17.3037 10.2612C17.2073 10.3521 17.1301 10.4613 17.0763 10.5824C17.0225 10.7035 16.9933 10.834 16.9905 10.9665C16.9876 11.0989 17.011 11.2306 17.0595 11.3539C17.1079 11.4772 17.1804 11.5897 17.2727 11.6847L25.1247 19.9998L17.2727 28.3128Z" fill="#1A4B38"/>
<circle cx="20" cy="20" r="19" stroke="#1A4B38" stroke-width="2"/>
</svg>
